<svg id="visual" viewBox="0 0 950 300" width="950" height="300" xmlns="http://www.w3.org/2000/svg" xmlns:xlink="http://www.w3.org/1999/xlink" version="1.1"><rect x="0" y="0" width="950" height="300" fill="#D7D6FF"></rect><path d="M0 76L6.8 71C13.7 66 27.3 56 41.2 57.8C55 59.7 69 73.3 82.8 76.2C96.7 79 110.3 71 124 68.3C137.7 65.7 151.3 68.3 165.2 64.7C179 61 193 51 206.8 46C220.7 41 234.3 41 248 42.8C261.7 44.7 275.3 48.3 289 55C302.7 61.7 316.3 71.3 330.2 74.3C344 77.3 358 73.7 371.8 69.7C385.7 65.7 399.3 61.3 413 58.7C426.7 56 440.3 55 454.2 56.5C468 58 482 62 495.8 64.8C509.7 67.7 523.3 69.3 537 68C550.7 66.7 564.3 62.3 578.2 58.7C592 55 606 52 619.8 51C633.7 50 647.3 51 661 49.7C674.7 48.3 688.3 44.7 702 47.3C715.7 50 729.3 59 743.2 64.7C757 70.3 771 72.7 784.8 74.7C798.7 76.7 812.3 78.3 826 76.2C839.7 74 853.3 68 867.2 62.3C881 56.7 895 51.3 908.8 50.7C922.7 50 936.3 54 943.2 56L950 58L950 0L943.2 0C936.3 0 922.7 0 908.8 0C895 0 881 0 867.2 0C853.3 0 839.7 0 826 0C812.3 0 798.7 0 784.8 0C771 0 757 0 743.2 0C729.3 0 715.7 0 702 0C688.3 0 674.7 0 661 0C647.3 0 633.7 0 619.8 0C606 0 592 0 578.2 0C564.3 0 550.7 0 537 0C523.3 0 509.7 0 495.8 0C482 0 468 0 454.2 0C440.3 0 426.7 0 413 0C399.3 0 385.7 0 371.8 0C358 0 344 0 330.2 0C316.3 0 302.7 0 289 0C275.3 0 261.7 0 248 0C234.3 0 220.7 0 206.8 0C193 0 179 0 165.2 0C151.3 0 137.7 0 124 0C110.3 0 96.7 0 82.8 0C69 0 55 0 41.2 0C27.3 0 13.7 0 6.8 0L0 0Z" fill="#7789ff"></path><path d="M0 57L6.8 53.2C13.7 49.3 27.3 41.7 41.2 43.5C55 45.3 69 56.7 82.8 58.2C96.7 59.7 110.3 51.3 124 46.5C137.7 41.7 151.3 40.3 165.2 45C179 49.7 193 60.3 206.8 60.7C220.7 61 234.3 51 248 44.7C261.7 38.3 275.3 35.7 289 40.3C302.7 45 316.3 57 330.2 58.7C344 60.3 358 51.7 371.8 46.8C385.7 42 399.3 41 413 44.8C426.7 48.7 440.3 57.3 454.2 61.5C468 65.7 482 65.3 495.8 61.3C509.7 57.3 523.3 49.7 537 49.3C550.7 49 564.3 56 578.2 56C592 56 606 49 619.8 47.7C633.7 46.3 647.3 50.7 661 51C674.7 51.3 688.3 47.7 702 47.7C715.7 47.7 729.3 51.3 743.2 54C757 56.7 771 58.3 784.8 55.3C798.7 52.3 812.3 44.7 826 45.8C839.7 47 853.3 57 867.2 62.7C881 68.3 895 69.7 908.8 66.8C922.7 64 936.3 57 943.2 53.5L950 50L950 0L943.2 0C936.3 0 922.7 0 908.8 0C895 0 881 0 867.2 0C853.3 0 839.7 0 826 0C812.3 0 798.7 0 784.8 0C771 0 757 0 743.2 0C729.3 0 715.7 0 702 0C688.3 0 674.7 0 661 0C647.3 0 633.7 0 619.8 0C606 0 592 0 578.2 0C564.3 0 550.7 0 537 0C523.3 0 509.7 0 495.8 0C482 0 468 0 454.2 0C440.3 0 426.7 0 413 0C399.3 0 385.7 0 371.8 0C358 0 344 0 330.2 0C316.3 0 302.7 0 289 0C275.3 0 261.7 0 248 0C234.3 0 220.7 0 206.8 0C193 0 179 0 165.2 0C151.3 0 137.7 0 124 0C110.3 0 96.7 0 82.8 0C69 0 55 0 41.2 0C27.3 0 13.7 0 6.8 0L0 0Z" fill="#8a95ff"></path><path d="M0 34L6.8 39C13.7 44 27.3 54 41.2 59.2C55 64.3 69 64.7 82.8 60.8C96.7 57 110.3 49 124 42.8C137.7 36.7 151.3 32.3 165.2 31.2C179 30 193 32 206.8 33.2C220.7 34.3 234.3 34.7 248 33.8C261.7 33 275.3 31 289 34.7C302.7 38.3 316.3 47.7 330.2 53.3C344 59 358 61 371.8 60C385.7 59 399.3 55 413 53.5C426.7 52 440.3 53 454.2 55.3C468 57.7 482 61.3 495.8 58.2C509.7 55 523.3 45 537 43.7C550.7 42.3 564.3 49.7 578.2 54.2C592 58.7 606 60.3 619.8 55.2C633.7 50 647.3 38 661 36.5C674.7 35 688.3 44 702 48.8C715.7 53.7 729.3 54.3 743.2 54C757 53.7 771 52.3 784.8 48.7C798.7 45 812.3 39 826 37.2C839.7 35.3 853.3 37.7 867.2 39.5C881 41.3 895 42.7 908.8 41.5C922.7 40.3 936.3 36.7 943.2 34.8L950 33L950 0L943.2 0C936.3 0 922.7 0 908.8 0C895 0 881 0 867.2 0C853.3 0 839.7 0 826 0C812.3 0 798.7 0 784.8 0C771 0 757 0 743.2 0C729.3 0 715.7 0 702 0C688.3 0 674.7 0 661 0C647.3 0 633.7 0 619.8 0C606 0 592 0 578.2 0C564.3 0 550.7 0 537 0C523.3 0 509.7 0 495.8 0C482 0 468 0 454.2 0C440.3 0 426.7 0 413 0C399.3 0 385.7 0 371.8 0C358 0 344 0 330.2 0C316.3 0 302.7 0 289 0C275.3 0 261.7 0 248 0C234.3 0 220.7 0 206.8 0C193 0 179 0 165.2 0C151.3 0 137.7 0 124 0C110.3 0 96.7 0 82.8 0C69 0 55 0 41.2 0C27.3 0 13.7 0 6.8 0L0 0Z" fill="#9ba2ff"></path><path d="M0 29L6.8 29.2C13.7 29.3 27.3 29.7 41.2 32.3C55 35 69 40 82.8 43C96.7 46 110.3 47 124 43.5C137.7 40 151.3 32 165.2 28.3C179 24.7 193 25.3 206.8 27.3C220.7 29.3 234.3 32.7 248 34.3C261.7 36 275.3 36 289 38C302.7 40 316.3 44 330.2 44.3C344 44.7 358 41.3 371.8 38.2C385.7 35 399.3 32 413 34.2C426.7 36.3 440.3 43.7 454.2 45.7C468 47.7 482 44.3 495.8 41C509.7 37.7 523.3 34.3 537 31.3C550.7 28.3 564.3 25.7 578.2 24.5C592 23.3 606 23.7 619.8 24.7C633.7 25.7 647.3 27.3 661 30.2C674.7 33 688.3 37 702 37.5C715.7 38 729.3 35 743.2 33.7C757 32.3 771 32.7 784.8 33.8C798.7 35 812.3 37 826 39.7C839.7 42.3 853.3 45.7 867.2 42.3C881 39 895 29 908.8 29.5C922.7 30 936.3 41 943.2 46.5L950 52L950 0L943.2 0C936.3 0 922.7 0 908.8 0C895 0 881 0 867.2 0C853.3 0 839.7 0 826 0C812.3 0 798.7 0 784.8 0C771 0 757 0 743.2 0C729.3 0 715.7 0 702 0C688.3 0 674.7 0 661 0C647.3 0 633.7 0 619.8 0C606 0 592 0 578.2 0C564.3 0 550.7 0 537 0C523.3 0 509.7 0 495.8 0C482 0 468 0 454.2 0C440.3 0 426.7 0 413 0C399.3 0 385.7 0 371.8 0C358 0 344 0 330.2 0C316.3 0 302.7 0 289 0C275.3 0 261.7 0 248 0C234.3 0 220.7 0 206.8 0C193 0 179 0 165.2 0C151.3 0 137.7 0 124 0C110.3 0 96.7 0 82.8 0C69 0 55 0 41.2 0C27.3 0 13.7 0 6.8 0L0 0Z" fill="#abafff"></path><path d="M0 20L6.8 22.3C13.7 24.7 27.3 29.3 41.2 32.7C55 36 69 38 82.8 38.8C96.7 39.7 110.3 39.3 124 38.5C137.7 37.7 151.3 36.3 165.2 36.7C179 37 193 39 206.8 39.2C220.7 39.3 234.3 37.7 248 37.5C261.7 37.3 275.3 38.7 289 38.7C302.7 38.7 316.3 37.3 330.2 35.2C344 33 358 30 371.8 28C385.7 26 399.3 25 413 24.7C426.7 24.3 440.3 24.7 454.2 23.7C468 22.7 482 20.3 495.8 19.7C509.7 19 523.3 20 537 23.8C550.7 27.7 564.3 34.3 578.2 34C592 33.7 606 26.3 619.8 23.5C633.7 20.7 647.3 22.3 661 22C674.7 21.7 688.3 19.3 702 21.2C715.7 23 729.3 29 743.2 32.3C757 35.7 771 36.3 784.8 33.8C798.7 31.3 812.3 25.7 826 25.5C839.7 25.3 853.3 30.7 867.2 33.8C881 37 895 38 908.8 39C922.7 40 936.3 41 943.2 41.5L950 42L950 0L943.2 0C936.3 0 922.7 0 908.8 0C895 0 881 0 867.2 0C853.3 0 839.7 0 826 0C812.3 0 798.7 0 784.8 0C771 0 757 0 743.2 0C729.3 0 715.7 0 702 0C688.3 0 674.7 0 661 0C647.3 0 633.7 0 619.8 0C606 0 592 0 578.2 0C564.3 0 550.7 0 537 0C523.3 0 509.7 0 495.8 0C482 0 468 0 454.2 0C440.3 0 426.7 0 413 0C399.3 0 385.7 0 371.8 0C358 0 344 0 330.2 0C316.3 0 302.7 0 289 0C275.3 0 261.7 0 248 0C234.3 0 220.7 0 206.8 0C193 0 179 0 165.2 0C151.3 0 137.7 0 124 0C110.3 0 96.7 0 82.8 0C69 0 55 0 41.2 0C27.3 0 13.7 0 6.8 0L0 0Z" fill="#babcff"></path><path d="M0 11L6.8 10.5C13.7 10 27.3 9 41.2 9.8C55 10.7 69 13.3 82.8 17.5C96.7 21.7 110.3 27.3 124 26C137.7 24.7 151.3 16.3 165.2 13C179 9.7 193 11.3 206.8 11.7C220.7 12 234.3 11 248 10.5C261.7 10 275.3 10 289 11.7C302.7 13.3 316.3 16.7 330.2 18.7C344 20.7 358 21.3 371.8 21.7C385.7 22 399.3 22 413 19.8C426.7 17.7 440.3 13.3 454.2 12.2C468 11 482 13 495.8 14.7C509.7 16.3 523.3 17.7 537 19.2C550.7 20.7 564.3 22.3 578.2 20.7C592 19 606 14 619.8 14.2C633.7 14.3 647.3 19.7 661 19.2C674.7 18.7 688.3 12.3 702 13.2C715.7 14 729.3 22 743.2 22.3C757 22.7 771 15.3 784.8 12.3C798.7 9.3 812.3 10.7 826 13.5C839.7 16.3 853.3 20.7 867.2 20.8C881 21 895 17 908.8 14.7C922.7 12.3 936.3 11.7 943.2 11.3L950 11L950 0L943.2 0C936.3 0 922.7 0 908.8 0C895 0 881 0 867.2 0C853.3 0 839.7 0 826 0C812.3 0 798.7 0 784.8 0C771 0 757 0 743.2 0C729.3 0 715.7 0 702 0C688.3 0 674.7 0 661 0C647.3 0 633.7 0 619.8 0C606 0 592 0 578.2 0C564.3 0 550.7 0 537 0C523.3 0 509.7 0 495.8 0C482 0 468 0 454.2 0C440.3 0 426.7 0 413 0C399.3 0 385.7 0 371.8 0C358 0 344 0 330.2 0C316.3 0 302.7 0 289 0C275.3 0 261.7 0 248 0C234.3 0 220.7 0 206.8 0C193 0 179 0 165.2 0C151.3 0 137.7 0 124 0C110.3 0 96.7 0 82.8 0C69 0 55 0 41.2 0C27.3 0 13.7 0 6.8 0L0 0Z" fill="#c9c9ff"></path><path d="M0 1L6.8 2.7C13.7 4.3 27.3 7.7 41.2 10C55 12.3 69 13.7 82.8 12.3C96.7 11 110.3 7 124 4.7C137.7 2.3 151.3 1.7 165.2 1.3C179 1 193 1 206.8 1.8C220.7 2.7 234.3 4.3 248 4.3C261.7 4.3 275.3 2.7 289 2.7C302.7 2.7 316.3 4.3 330.2 6.2C344 8 358 10 371.8 9.2C385.7 8.3 399.3 4.7 413 3.2C426.7 1.7 440.3 2.3 454.2 5.5C468 8.7 482 14.3 495.8 13.8C509.7 13.3 523.3 6.7 537 4.5C550.7 2.3 564.3 4.7 578.2 5.2C592 5.7 606 4.3 619.8 6.2C633.7 8 647.3 13 661 15.8C674.7 18.7 688.3 19.3 702 17.8C715.7 16.3 729.3 12.7 743.2 12C757 11.3 771 13.7 784.8 15C798.7 16.3 812.3 16.7 826 17.2C839.7 17.7 853.3 18.3 867.2 17.3C881 16.3 895 13.7 908.8 12.7C922.7 11.7 936.3 12.3 943.2 12.7L950 13L950 0L943.2 0C936.3 0 922.7 0 908.8 0C895 0 881 0 867.2 0C853.3 0 839.7 0 826 0C812.3 0 798.7 0 784.8 0C771 0 757 0 743.2 0C729.3 0 715.7 0 702 0C688.3 0 674.7 0 661 0C647.3 0 633.7 0 619.8 0C606 0 592 0 578.2 0C564.3 0 550.7 0 537 0C523.3 0 509.7 0 495.8 0C482 0 468 0 454.2 0C440.3 0 426.7 0 413 0C399.3 0 385.7 0 371.8 0C358 0 344 0 330.2 0C316.3 0 302.7 0 289 0C275.3 0 261.7 0 248 0C234.3 0 220.7 0 206.8 0C193 0 179 0 165.2 0C151.3 0 137.7 0 124 0C110.3 0 96.7 0 82.8 0C69 0 55 0 41.2 0C27.3 0 13.7 0 6.8 0L0 0Z" fill="#d7d6ff"></path></svg>