<svg id="visual" viewBox="0 0 950 300" width="950" height="300" xmlns="http://www.w3.org/2000/svg" xmlns:xlink="http://www.w3.org/1999/xlink" version="1.1"><rect x="0" y="0" width="950" height="300" fill="#D7D6FF"></rect><path d="M0 180L9.3 186.8C18.7 193.7 37.3 207.3 56 207.2C74.7 207 93.3 193 112 195.7C130.7 198.3 149.3 217.7 168 225C186.7 232.3 205.3 227.7 223.8 226.3C242.3 225 260.7 227 279.2 221C297.7 215 316.3 201 335 202.8C353.7 204.7 372.3 222.3 391 229.8C409.7 237.3 428.3 234.7 447 229.2C465.7 223.7 484.3 215.3 503 212.5C521.7 209.7 540.3 212.3 559 210.3C577.7 208.3 596.3 201.7 615 198.5C633.7 195.3 652.3 195.7 670.8 197.3C689.3 199 707.7 202 726.2 204.3C744.7 206.7 763.3 208.3 782 210C800.7 211.7 819.3 213.3 838 210C856.7 206.7 875.3 198.3 894 202.3C912.7 206.3 931.3 222.7 940.7 230.8L950 239L950 301L940.7 301C931.3 301 912.7 301 894 301C875.3 301 856.7 301 838 301C819.3 301 800.7 301 782 301C763.3 301 744.7 301 726.2 301C707.7 301 689.3 301 670.8 301C652.3 301 633.7 301 615 301C596.3 301 577.7 301 559 301C540.3 301 521.7 301 503 301C484.3 301 465.7 301 447 301C428.3 301 409.7 301 391 301C372.3 301 353.7 301 335 301C316.3 301 297.7 301 279.2 301C260.7 301 242.3 301 223.8 301C205.3 301 186.7 301 168 301C149.3 301 130.7 301 112 301C93.3 301 74.7 301 56 301C37.3 301 18.7 301 9.3 301L0 301Z" fill="#7789ff"></path><path d="M0 217L9.3 218.3C18.7 219.7 37.3 222.3 56 227.7C74.7 233 93.3 241 112 241.5C130.7 242 149.3 235 168 233.8C186.7 232.7 205.3 237.3 223.8 237.7C242.3 238 260.7 234 279.2 235.8C297.7 237.7 316.3 245.3 335 243.7C353.7 242 372.3 231 391 224.5C409.7 218 428.3 216 447 214C465.7 212 484.3 210 503 213.7C521.7 217.3 540.3 226.7 559 230.5C577.7 234.3 596.3 232.7 615 229C633.7 225.3 652.3 219.7 670.8 215C689.3 210.3 707.7 206.7 726.2 213.2C744.7 219.7 763.3 236.3 782 239.5C800.7 242.7 819.3 232.3 838 224C856.7 215.7 875.3 209.3 894 214.7C912.7 220 931.3 237 940.7 245.5L950 254L950 301L940.7 301C931.3 301 912.7 301 894 301C875.3 301 856.7 301 838 301C819.3 301 800.7 301 782 301C763.3 301 744.7 301 726.2 301C707.7 301 689.3 301 670.8 301C652.3 301 633.7 301 615 301C596.3 301 577.7 301 559 301C540.3 301 521.7 301 503 301C484.3 301 465.7 301 447 301C428.3 301 409.7 301 391 301C372.3 301 353.7 301 335 301C316.3 301 297.7 301 279.2 301C260.7 301 242.3 301 223.8 301C205.3 301 186.7 301 168 301C149.3 301 130.7 301 112 301C93.3 301 74.7 301 56 301C37.3 301 18.7 301 9.3 301L0 301Z" fill="#a0a5ff"></path><path d="M0 271L9.3 264.3C18.7 257.7 37.3 244.3 56 240.2C74.7 236 93.3 241 112 240.2C130.7 239.3 149.3 232.7 168 236.3C186.7 240 205.3 254 223.8 259.2C242.3 264.3 260.7 260.7 279.2 252.8C297.7 245 316.3 233 335 233.5C353.7 234 372.3 247 391 248.8C409.7 250.7 428.3 241.3 447 236C465.7 230.7 484.3 229.3 503 235.7C521.7 242 540.3 256 559 255.8C577.7 255.7 596.3 241.3 615 237.2C633.7 233 652.3 239 670.8 243.7C689.3 248.3 707.7 251.7 726.2 249.8C744.7 248 763.3 241 782 242.3C800.7 243.7 819.3 253.3 838 259C856.7 264.7 875.3 266.3 894 265.5C912.7 264.7 931.3 261.3 940.7 259.7L950 258L950 301L940.7 301C931.3 301 912.7 301 894 301C875.3 301 856.7 301 838 301C819.3 301 800.7 301 782 301C763.3 301 744.7 301 726.2 301C707.7 301 689.3 301 670.8 301C652.3 301 633.7 301 615 301C596.3 301 577.7 301 559 301C540.3 301 521.7 301 503 301C484.3 301 465.7 301 447 301C428.3 301 409.7 301 391 301C372.3 301 353.7 301 335 301C316.3 301 297.7 301 279.2 301C260.7 301 242.3 301 223.8 301C205.3 301 186.7 301 168 301C149.3 301 130.7 301 112 301C93.3 301 74.7 301 56 301C37.3 301 18.7 301 9.3 301L0 301Z" fill="#c2c2ff"></path><path d="M0 254L9.3 256.2C18.7 258.3 37.3 262.7 56 264.2C74.7 265.7 93.3 264.3 112 263.2C130.7 262 149.3 261 168 264C186.7 267 205.3 274 223.8 274.3C242.3 274.7 260.7 268.3 279.2 262.5C297.7 256.7 316.3 251.3 335 249.8C353.7 248.3 372.3 250.7 391 254.2C409.7 257.7 428.3 262.3 447 262.2C465.7 262 484.3 257 503 255.2C521.7 253.3 540.3 254.7 559 254.2C577.7 253.7 596.3 251.3 615 252.8C633.7 254.3 652.3 259.7 670.8 263C689.3 266.3 707.7 267.7 726.2 270.7C744.7 273.7 763.3 278.3 782 274.8C800.7 271.3 819.3 259.7 838 253.8C856.7 248 875.3 248 894 248C912.7 248 931.3 248 940.7 248L950 248L950 301L940.7 301C931.3 301 912.7 301 894 301C875.3 301 856.7 301 838 301C819.3 301 800.7 301 782 301C763.3 301 744.7 301 726.2 301C707.7 301 689.3 301 670.8 301C652.3 301 633.7 301 615 301C596.3 301 577.7 301 559 301C540.3 301 521.7 301 503 301C484.3 301 465.7 301 447 301C428.3 301 409.7 301 391 301C372.3 301 353.7 301 335 301C316.3 301 297.7 301 279.2 301C260.7 301 242.3 301 223.8 301C205.3 301 186.7 301 168 301C149.3 301 130.7 301 112 301C93.3 301 74.7 301 56 301C37.3 301 18.7 301 9.3 301L0 301Z" fill="#e1e0ff"></path><path d="M0 293L9.3 289C18.7 285 37.3 277 56 273.2C74.7 269.3 93.3 269.7 112 270.2C130.7 270.7 149.3 271.3 168 270.3C186.7 269.3 205.3 266.7 223.8 265.8C242.3 265 260.7 266 279.2 269.8C297.7 273.7 316.3 280.3 335 285.2C353.7 290 372.3 293 391 291.5C409.7 290 428.3 284 447 279.3C465.7 274.7 484.3 271.3 503 269C521.7 266.7 540.3 265.3 559 265.8C577.7 266.3 596.3 268.7 615 268.8C633.7 269 652.3 267 670.8 267.2C689.3 267.3 707.7 269.7 726.2 274.7C744.7 279.7 763.3 287.3 782 288C800.7 288.7 819.3 282.3 838 278C856.7 273.7 875.3 271.3 894 274C912.7 276.7 931.3 284.3 940.7 288.2L950 292L950 301L940.7 301C931.3 301 912.7 301 894 301C875.3 301 856.7 301 838 301C819.3 301 800.7 301 782 301C763.3 301 744.7 301 726.2 301C707.7 301 689.3 301 670.8 301C652.3 301 633.7 301 615 301C596.3 301 577.7 301 559 301C540.3 301 521.7 301 503 301C484.3 301 465.7 301 447 301C428.3 301 409.7 301 391 301C372.3 301 353.7 301 335 301C316.3 301 297.7 301 279.2 301C260.7 301 242.3 301 223.8 301C205.3 301 186.7 301 168 301C149.3 301 130.7 301 112 301C93.3 301 74.7 301 56 301C37.3 301 18.7 301 9.3 301L0 301Z" fill="#ffffff"></path></svg>