<svg id="visual" viewBox="0 0 950 100" width="950" height="100" xmlns="http://www.w3.org/2000/svg" xmlns:xlink="http://www.w3.org/1999/xlink" version="1.1"><rect x="0" y="0" width="950" height="100" fill="#ffffff"></rect><path d="M0 81L6.8 74.8C13.7 68.7 27.3 56.3 41.2 57.7C55 59 69 74 82.8 80.3C96.7 86.7 110.3 84.3 124 81.7C137.7 79 151.3 76 165.2 71.8C179 67.7 193 62.3 206.8 58.5C220.7 54.7 234.3 52.3 248 50.5C261.7 48.7 275.3 47.3 289 49.8C302.7 52.3 316.3 58.7 330.2 58.8C344 59 358 53 371.8 52.5C385.7 52 399.3 57 413 65.5C426.7 74 440.3 86 454.2 89.5C468 93 482 88 495.8 83.8C509.7 79.7 523.3 76.3 537 77.3C550.7 78.3 564.3 83.7 578.2 82.3C592 81 606 73 619.8 69.5C633.7 66 647.3 67 661 72C674.7 77 688.3 86 702 86.7C715.7 87.3 729.3 79.7 743.2 71.8C757 64 771 56 784.8 60.3C798.7 64.7 812.3 81.3 826 86C839.7 90.7 853.3 83.3 867.2 79.5C881 75.7 895 75.3 908.8 72.5C922.7 69.7 936.3 64.3 943.2 61.7L950 59L950 0L943.2 0C936.3 0 922.7 0 908.8 0C895 0 881 0 867.2 0C853.3 0 839.7 0 826 0C812.3 0 798.7 0 784.8 0C771 0 757 0 743.2 0C729.3 0 715.7 0 702 0C688.3 0 674.7 0 661 0C647.3 0 633.7 0 619.8 0C606 0 592 0 578.2 0C564.3 0 550.7 0 537 0C523.3 0 509.7 0 495.8 0C482 0 468 0 454.2 0C440.3 0 426.7 0 413 0C399.3 0 385.7 0 371.8 0C358 0 344 0 330.2 0C316.3 0 302.7 0 289 0C275.3 0 261.7 0 248 0C234.3 0 220.7 0 206.8 0C193 0 179 0 165.2 0C151.3 0 137.7 0 124 0C110.3 0 96.7 0 82.8 0C69 0 55 0 41.2 0C27.3 0 13.7 0 6.8 0L0 0Z" fill="#d7d6ff"></path><path d="M0 48L6.8 54.2C13.7 60.3 27.3 72.7 41.2 74.3C55 76 69 67 82.8 64C96.7 61 110.3 64 124 64C137.7 64 151.3 61 165.2 56.8C179 52.7 193 47.3 206.8 49.5C220.7 51.7 234.3 61.3 248 61.8C261.7 62.3 275.3 53.7 289 57C302.7 60.3 316.3 75.7 330.2 80C344 84.3 358 77.7 371.8 77.7C385.7 77.7 399.3 84.3 413 80C426.7 75.7 440.3 60.3 454.2 54.5C468 48.7 482 52.3 495.8 55.8C509.7 59.3 523.3 62.7 537 64.8C550.7 67 564.3 68 578.2 63.5C592 59 606 49 619.8 51C633.7 53 647.3 67 661 70.8C674.7 74.7 688.3 68.3 702 64.8C715.7 61.3 729.3 60.7 743.2 63.2C757 65.7 771 71.3 784.8 69.5C798.7 67.7 812.3 58.3 826 58.3C839.7 58.3 853.3 67.7 867.2 68.7C881 69.7 895 62.3 908.8 59.5C922.7 56.7 936.3 58.3 943.2 59.2L950 60L950 0L943.2 0C936.3 0 922.7 0 908.8 0C895 0 881 0 867.2 0C853.3 0 839.7 0 826 0C812.3 0 798.7 0 784.8 0C771 0 757 0 743.2 0C729.3 0 715.7 0 702 0C688.3 0 674.7 0 661 0C647.3 0 633.7 0 619.8 0C606 0 592 0 578.2 0C564.3 0 550.7 0 537 0C523.3 0 509.7 0 495.8 0C482 0 468 0 454.2 0C440.3 0 426.7 0 413 0C399.3 0 385.7 0 371.8 0C358 0 344 0 330.2 0C316.3 0 302.7 0 289 0C275.3 0 261.7 0 248 0C234.3 0 220.7 0 206.8 0C193 0 179 0 165.2 0C151.3 0 137.7 0 124 0C110.3 0 96.7 0 82.8 0C69 0 55 0 41.2 0C27.3 0 13.7 0 6.8 0L0 0Z" fill="#c7c8ef"></path><path d="M0 80L6.8 74.2C13.7 68.3 27.3 56.7 41.2 55C55 53.3 69 61.7 82.8 60.8C96.7 60 110.3 50 124 47.5C137.7 45 151.3 50 165.2 51.5C179 53 193 51 206.8 49.8C220.7 48.7 234.3 48.3 248 51.5C261.7 54.7 275.3 61.3 289 66C302.7 70.7 316.3 73.3 330.2 69.8C344 66.3 358 56.7 371.8 56.2C385.7 55.7 399.3 64.3 413 70.3C426.7 76.3 440.3 79.7 454.2 73.2C468 66.7 482 50.3 495.8 44.7C509.7 39 523.3 44 537 47.7C550.7 51.3 564.3 53.7 578.2 53.8C592 54 606 52 619.8 54.3C633.7 56.7 647.3 63.3 661 68.7C674.7 74 688.3 78 702 73.8C715.7 69.7 729.3 57.3 743.2 49.7C757 42 771 39 784.8 37.2C798.7 35.3 812.3 34.7 826 36.3C839.7 38 853.3 42 867.2 42.7C881 43.3 895 40.7 908.8 44.5C922.7 48.3 936.3 58.7 943.2 63.8L950 69L950 0L943.2 0C936.3 0 922.7 0 908.8 0C895 0 881 0 867.2 0C853.3 0 839.7 0 826 0C812.3 0 798.7 0 784.8 0C771 0 757 0 743.2 0C729.3 0 715.7 0 702 0C688.3 0 674.7 0 661 0C647.3 0 633.7 0 619.8 0C606 0 592 0 578.2 0C564.3 0 550.7 0 537 0C523.3 0 509.7 0 495.8 0C482 0 468 0 454.2 0C440.3 0 426.7 0 413 0C399.3 0 385.7 0 371.8 0C358 0 344 0 330.2 0C316.3 0 302.7 0 289 0C275.3 0 261.7 0 248 0C234.3 0 220.7 0 206.8 0C193 0 179 0 165.2 0C151.3 0 137.7 0 124 0C110.3 0 96.7 0 82.8 0C69 0 55 0 41.2 0C27.3 0 13.7 0 6.8 0L0 0Z" fill="#b8bbde"></path><path d="M0 30L6.8 31.5C13.7 33 27.3 36 41.2 41.2C55 46.3 69 53.7 82.8 54C96.7 54.3 110.3 47.7 124 44.5C137.7 41.3 151.3 41.7 165.2 41.5C179 41.3 193 40.7 206.8 45.8C220.7 51 234.3 62 248 60.5C261.7 59 275.3 45 289 44C302.7 43 316.3 55 330.2 56.8C344 58.7 358 50.3 371.8 46.2C385.7 42 399.3 42 413 47.5C426.7 53 440.3 64 454.2 62C468 60 482 45 495.8 39.7C509.7 34.3 523.3 38.7 537 43.7C550.7 48.7 564.3 54.3 578.2 52.2C592 50 606 40 619.8 37.3C633.7 34.7 647.3 39.3 661 45.2C674.7 51 688.3 58 702 57.8C715.7 57.7 729.3 50.3 743.2 48C757 45.7 771 48.3 784.8 49.7C798.7 51 812.3 51 826 53C839.7 55 853.3 59 867.2 60C881 61 895 59 908.8 59C922.7 59 936.3 61 943.2 62L950 63L950 0L943.2 0C936.3 0 922.7 0 908.8 0C895 0 881 0 867.2 0C853.3 0 839.7 0 826 0C812.3 0 798.7 0 784.8 0C771 0 757 0 743.2 0C729.3 0 715.7 0 702 0C688.3 0 674.7 0 661 0C647.3 0 633.7 0 619.8 0C606 0 592 0 578.2 0C564.3 0 550.7 0 537 0C523.3 0 509.7 0 495.8 0C482 0 468 0 454.2 0C440.3 0 426.7 0 413 0C399.3 0 385.7 0 371.8 0C358 0 344 0 330.2 0C316.3 0 302.7 0 289 0C275.3 0 261.7 0 248 0C234.3 0 220.7 0 206.8 0C193 0 179 0 165.2 0C151.3 0 137.7 0 124 0C110.3 0 96.7 0 82.8 0C69 0 55 0 41.2 0C27.3 0 13.7 0 6.8 0L0 0Z" fill="#a9adce"></path><path d="M0 55L6.8 51.2C13.7 47.3 27.3 39.7 41.2 40.3C55 41 69 50 82.8 55.8C96.7 61.7 110.3 64.3 124 63.7C137.7 63 151.3 59 165.2 56.3C179 53.7 193 52.3 206.8 50.7C220.7 49 234.3 47 248 44.7C261.7 42.3 275.3 39.7 289 39.7C302.7 39.7 316.3 42.3 330.2 43.2C344 44 358 43 371.8 43.8C385.7 44.7 399.3 47.3 413 49.3C426.7 51.3 440.3 52.7 454.2 55.3C468 58 482 62 495.8 63C509.7 64 523.3 62 537 57.5C550.7 53 564.3 46 578.2 46.3C592 46.7 606 54.3 619.8 55.3C633.7 56.3 647.3 50.7 661 48.8C674.7 47 688.3 49 702 52.2C715.7 55.3 729.3 59.7 743.2 59.7C757 59.7 771 55.3 784.8 53.8C798.7 52.3 812.3 53.7 826 54.8C839.7 56 853.3 57 867.2 58C881 59 895 60 908.8 54.7C922.7 49.3 936.3 37.7 943.2 31.8L950 26L950 0L943.2 0C936.3 0 922.7 0 908.8 0C895 0 881 0 867.2 0C853.3 0 839.7 0 826 0C812.3 0 798.7 0 784.8 0C771 0 757 0 743.2 0C729.3 0 715.7 0 702 0C688.3 0 674.7 0 661 0C647.3 0 633.7 0 619.8 0C606 0 592 0 578.2 0C564.3 0 550.7 0 537 0C523.3 0 509.7 0 495.8 0C482 0 468 0 454.2 0C440.3 0 426.7 0 413 0C399.3 0 385.7 0 371.8 0C358 0 344 0 330.2 0C316.3 0 302.7 0 289 0C275.3 0 261.7 0 248 0C234.3 0 220.7 0 206.8 0C193 0 179 0 165.2 0C151.3 0 137.7 0 124 0C110.3 0 96.7 0 82.8 0C69 0 55 0 41.2 0C27.3 0 13.7 0 6.8 0L0 0Z" fill="#9aa0bf"></path><path d="M0 60L6.8 56.2C13.7 52.3 27.3 44.7 41.2 42.8C55 41 69 45 82.8 44C96.7 43 110.3 37 124 38.2C137.7 39.3 151.3 47.7 165.2 49.5C179 51.3 193 46.7 206.8 42.8C220.7 39 234.3 36 248 38.8C261.7 41.7 275.3 50.3 289 52C302.7 53.7 316.3 48.3 330.2 47.7C344 47 358 51 371.8 51.8C385.7 52.7 399.3 50.3 413 46.8C426.7 43.3 440.3 38.7 454.2 39.2C468 39.7 482 45.3 495.8 44.3C509.7 43.3 523.3 35.7 537 33C550.7 30.3 564.3 32.7 578.2 33.3C592 34 606 33 619.8 36.7C633.7 40.3 647.3 48.7 661 52.8C674.7 57 688.3 57 702 56.7C715.7 56.3 729.3 55.7 743.2 51C757 46.3 771 37.7 784.8 38.2C798.7 38.7 812.3 48.3 826 48C839.7 47.7 853.3 37.3 867.2 36.5C881 35.7 895 44.3 908.8 44.8C922.7 45.3 936.3 37.7 943.2 33.8L950 30L950 0L943.2 0C936.3 0 922.7 0 908.8 0C895 0 881 0 867.2 0C853.3 0 839.7 0 826 0C812.3 0 798.7 0 784.8 0C771 0 757 0 743.2 0C729.3 0 715.7 0 702 0C688.3 0 674.7 0 661 0C647.3 0 633.7 0 619.8 0C606 0 592 0 578.2 0C564.3 0 550.7 0 537 0C523.3 0 509.7 0 495.8 0C482 0 468 0 454.2 0C440.3 0 426.7 0 413 0C399.3 0 385.7 0 371.8 0C358 0 344 0 330.2 0C316.3 0 302.7 0 289 0C275.3 0 261.7 0 248 0C234.3 0 220.7 0 206.8 0C193 0 179 0 165.2 0C151.3 0 137.7 0 124 0C110.3 0 96.7 0 82.8 0C69 0 55 0 41.2 0C27.3 0 13.7 0 6.8 0L0 0Z" fill="#8c93af"></path><path d="M0 39L6.8 37.5C13.7 36 27.3 33 41.2 34.2C55 35.3 69 40.7 82.8 43.2C96.7 45.7 110.3 45.3 124 43.2C137.7 41 151.3 37 165.2 32.8C179 28.7 193 24.3 206.8 22.8C220.7 21.3 234.3 22.7 248 25.3C261.7 28 275.3 32 289 31.5C302.7 31 316.3 26 330.2 26.5C344 27 358 33 371.8 34.7C385.7 36.3 399.3 33.7 413 31C426.7 28.3 440.3 25.7 454.2 29C468 32.3 482 41.7 495.8 46C509.7 50.3 523.3 49.7 537 47.2C550.7 44.7 564.3 40.3 578.2 35.7C592 31 606 26 619.8 28.3C633.7 30.7 647.3 40.3 661 41.5C674.7 42.7 688.3 35.3 702 30.5C715.7 25.7 729.3 23.3 743.2 26C757 28.7 771 36.3 784.8 36.7C798.7 37 812.3 30 826 30.2C839.7 30.3 853.3 37.7 867.2 41C881 44.3 895 43.7 908.8 43.7C922.7 43.7 936.3 44.3 943.2 44.7L950 45L950 0L943.2 0C936.3 0 922.7 0 908.8 0C895 0 881 0 867.2 0C853.3 0 839.7 0 826 0C812.3 0 798.7 0 784.8 0C771 0 757 0 743.2 0C729.3 0 715.7 0 702 0C688.3 0 674.7 0 661 0C647.3 0 633.7 0 619.8 0C606 0 592 0 578.2 0C564.3 0 550.7 0 537 0C523.3 0 509.7 0 495.8 0C482 0 468 0 454.2 0C440.3 0 426.7 0 413 0C399.3 0 385.7 0 371.8 0C358 0 344 0 330.2 0C316.3 0 302.7 0 289 0C275.3 0 261.7 0 248 0C234.3 0 220.7 0 206.8 0C193 0 179 0 165.2 0C151.3 0 137.7 0 124 0C110.3 0 96.7 0 82.8 0C69 0 55 0 41.2 0C27.3 0 13.7 0 6.8 0L0 0Z" fill="#7e869f"></path><path d="M0 32L6.8 33.2C13.7 34.3 27.3 36.7 41.2 35.2C55 33.7 69 28.3 82.8 27.2C96.7 26 110.3 29 124 29.5C137.7 30 151.3 28 165.2 26C179 24 193 22 206.8 25.2C220.7 28.3 234.3 36.7 248 37.2C261.7 37.7 275.3 30.3 289 27.5C302.7 24.7 316.3 26.3 330.2 26C344 25.7 358 23.3 371.8 24.5C385.7 25.7 399.3 30.3 413 31.3C426.7 32.3 440.3 29.7 454.2 30.5C468 31.3 482 35.7 495.8 38.2C509.7 40.7 523.3 41.3 537 39.3C550.7 37.3 564.3 32.7 578.2 30.3C592 28 606 28 619.8 28.3C633.7 28.7 647.3 29.3 661 28.2C674.7 27 688.3 24 702 22.5C715.7 21 729.3 21 743.2 20.8C757 20.7 771 20.3 784.8 20.7C798.7 21 812.3 22 826 22C839.7 22 853.3 21 867.2 21.7C881 22.3 895 24.7 908.8 26C922.7 27.3 936.3 27.7 943.2 27.8L950 28L950 0L943.2 0C936.3 0 922.7 0 908.8 0C895 0 881 0 867.2 0C853.3 0 839.7 0 826 0C812.3 0 798.7 0 784.8 0C771 0 757 0 743.2 0C729.3 0 715.7 0 702 0C688.3 0 674.7 0 661 0C647.3 0 633.7 0 619.8 0C606 0 592 0 578.2 0C564.3 0 550.7 0 537 0C523.3 0 509.7 0 495.8 0C482 0 468 0 454.2 0C440.3 0 426.7 0 413 0C399.3 0 385.7 0 371.8 0C358 0 344 0 330.2 0C316.3 0 302.7 0 289 0C275.3 0 261.7 0 248 0C234.3 0 220.7 0 206.8 0C193 0 179 0 165.2 0C151.3 0 137.7 0 124 0C110.3 0 96.7 0 82.8 0C69 0 55 0 41.2 0C27.3 0 13.7 0 6.8 0L0 0Z" fill="#717990"></path><path d="M0 15L6.8 15.5C13.7 16 27.3 17 41.2 18.5C55 20 69 22 82.8 24.8C96.7 27.7 110.3 31.3 124 31.7C137.7 32 151.3 29 165.2 28.7C179 28.3 193 30.7 206.8 30.7C220.7 30.7 234.3 28.3 248 29C261.7 29.7 275.3 33.3 289 33.2C302.7 33 316.3 29 330.2 25.7C344 22.3 358 19.7 371.8 18.2C385.7 16.7 399.3 16.3 413 17.8C426.7 19.3 440.3 22.7 454.2 24.7C468 26.7 482 27.3 495.8 25.8C509.7 24.3 523.3 20.7 537 18.2C550.7 15.7 564.3 14.3 578.2 14.5C592 14.7 606 16.3 619.8 17.2C633.7 18 647.3 18 661 20.8C674.7 23.7 688.3 29.3 702 28.8C715.7 28.3 729.3 21.7 743.2 17.7C757 13.7 771 12.3 784.8 13C798.7 13.7 812.3 16.3 826 18.7C839.7 21 853.3 23 867.2 21.7C881 20.3 895 15.7 908.8 13.8C922.7 12 936.3 13 943.2 13.5L950 14L950 0L943.2 0C936.3 0 922.7 0 908.8 0C895 0 881 0 867.2 0C853.3 0 839.7 0 826 0C812.3 0 798.7 0 784.8 0C771 0 757 0 743.2 0C729.3 0 715.7 0 702 0C688.3 0 674.7 0 661 0C647.3 0 633.7 0 619.8 0C606 0 592 0 578.2 0C564.3 0 550.7 0 537 0C523.3 0 509.7 0 495.8 0C482 0 468 0 454.2 0C440.3 0 426.7 0 413 0C399.3 0 385.7 0 371.8 0C358 0 344 0 330.2 0C316.3 0 302.7 0 289 0C275.3 0 261.7 0 248 0C234.3 0 220.7 0 206.8 0C193 0 179 0 165.2 0C151.3 0 137.7 0 124 0C110.3 0 96.7 0 82.8 0C69 0 55 0 41.2 0C27.3 0 13.7 0 6.8 0L0 0Z" fill="#646c81"></path><path d="M0 15L6.8 16.5C13.7 18 27.3 21 41.2 21.5C55 22 69 20 82.8 17.7C96.7 15.3 110.3 12.7 124 12.3C137.7 12 151.3 14 165.2 14.3C179 14.7 193 13.3 206.8 15.7C220.7 18 234.3 24 248 24.8C261.7 25.7 275.3 21.3 289 19.7C302.7 18 316.3 19 330.2 20.8C344 22.7 358 25.3 371.8 23.2C385.7 21 399.3 14 413 12.5C426.7 11 440.3 15 454.2 17.2C468 19.3 482 19.7 495.8 19.7C509.7 19.7 523.3 19.3 537 19C550.7 18.7 564.3 18.3 578.2 20C592 21.7 606 25.3 619.8 24.8C633.7 24.3 647.3 19.7 661 19C674.7 18.3 688.3 21.7 702 21.5C715.7 21.3 729.3 17.7 743.2 17.3C757 17 771 20 784.8 19.5C798.7 19 812.3 15 826 13.2C839.7 11.3 853.3 11.7 867.2 12.8C881 14 895 16 908.8 15.8C922.7 15.7 936.3 13.3 943.2 12.2L950 11L950 0L943.2 0C936.3 0 922.7 0 908.8 0C895 0 881 0 867.2 0C853.3 0 839.7 0 826 0C812.3 0 798.7 0 784.8 0C771 0 757 0 743.2 0C729.3 0 715.7 0 702 0C688.3 0 674.7 0 661 0C647.3 0 633.7 0 619.8 0C606 0 592 0 578.2 0C564.3 0 550.7 0 537 0C523.3 0 509.7 0 495.8 0C482 0 468 0 454.2 0C440.3 0 426.7 0 413 0C399.3 0 385.7 0 371.8 0C358 0 344 0 330.2 0C316.3 0 302.7 0 289 0C275.3 0 261.7 0 248 0C234.3 0 220.7 0 206.8 0C193 0 179 0 165.2 0C151.3 0 137.7 0 124 0C110.3 0 96.7 0 82.8 0C69 0 55 0 41.2 0C27.3 0 13.7 0 6.8 0L0 0Z" fill="#576072"></path><path d="M0 14L6.8 14.5C13.7 15 27.3 16 41.2 14.8C55 13.7 69 10.3 82.8 8.5C96.7 6.7 110.3 6.3 124 7C137.7 7.7 151.3 9.3 165.2 11.2C179 13 193 15 206.8 15.5C220.7 16 234.3 15 248 14.3C261.7 13.7 275.3 13.3 289 14.2C302.7 15 316.3 17 330.2 16.2C344 15.3 358 11.7 371.8 9.3C385.7 7 399.3 6 413 7.3C426.7 8.7 440.3 12.3 454.2 13C468 13.7 482 11.3 495.8 12C509.7 12.7 523.3 16.3 537 16.8C550.7 17.3 564.3 14.7 578.2 14.5C592 14.3 606 16.7 619.8 16.5C633.7 16.3 647.3 13.7 661 13.7C674.7 13.7 688.3 16.3 702 15.3C715.7 14.3 729.3 9.7 743.2 8.7C757 7.7 771 10.3 784.8 12.3C798.7 14.3 812.3 15.7 826 17.2C839.7 18.7 853.3 20.3 867.2 18.5C881 16.7 895 11.3 908.8 9C922.7 6.7 936.3 7.3 943.2 7.7L950 8L950 0L943.2 0C936.3 0 922.7 0 908.8 0C895 0 881 0 867.2 0C853.3 0 839.7 0 826 0C812.3 0 798.7 0 784.8 0C771 0 757 0 743.2 0C729.3 0 715.7 0 702 0C688.3 0 674.7 0 661 0C647.3 0 633.7 0 619.8 0C606 0 592 0 578.2 0C564.3 0 550.7 0 537 0C523.3 0 509.7 0 495.8 0C482 0 468 0 454.2 0C440.3 0 426.7 0 413 0C399.3 0 385.7 0 371.8 0C358 0 344 0 330.2 0C316.3 0 302.7 0 289 0C275.3 0 261.7 0 248 0C234.3 0 220.7 0 206.8 0C193 0 179 0 165.2 0C151.3 0 137.7 0 124 0C110.3 0 96.7 0 82.8 0C69 0 55 0 41.2 0C27.3 0 13.7 0 6.8 0L0 0Z" fill="#4b5463"></path><path d="M0 14L6.8 13C13.7 12 27.3 10 41.2 8.7C55 7.3 69 6.7 82.8 7.2C96.7 7.7 110.3 9.3 124 8.8C137.7 8.3 151.3 5.7 165.2 4.3C179 3 193 3 206.8 4.3C220.7 5.7 234.3 8.3 248 8.7C261.7 9 275.3 7 289 6.8C302.7 6.7 316.3 8.3 330.2 7.7C344 7 358 4 371.8 3.2C385.7 2.3 399.3 3.7 413 4.5C426.7 5.3 440.3 5.7 454.2 4.8C468 4 482 2 495.8 2.8C509.7 3.7 523.3 7.3 537 8.5C550.7 9.7 564.3 8.3 578.2 7.3C592 6.3 606 5.7 619.8 4.7C633.7 3.7 647.3 2.3 661 2.5C674.7 2.7 688.3 4.3 702 5.7C715.7 7 729.3 8 743.2 9C757 10 771 11 784.8 11.3C798.7 11.7 812.3 11.3 826 11.5C839.7 11.7 853.3 12.3 867.2 11.7C881 11 895 9 908.8 8.5C922.7 8 936.3 9 943.2 9.5L950 10L950 0L943.2 0C936.3 0 922.7 0 908.8 0C895 0 881 0 867.2 0C853.3 0 839.7 0 826 0C812.3 0 798.7 0 784.8 0C771 0 757 0 743.2 0C729.3 0 715.7 0 702 0C688.3 0 674.7 0 661 0C647.3 0 633.7 0 619.8 0C606 0 592 0 578.2 0C564.3 0 550.7 0 537 0C523.3 0 509.7 0 495.8 0C482 0 468 0 454.2 0C440.3 0 426.7 0 413 0C399.3 0 385.7 0 371.8 0C358 0 344 0 330.2 0C316.3 0 302.7 0 289 0C275.3 0 261.7 0 248 0C234.3 0 220.7 0 206.8 0C193 0 179 0 165.2 0C151.3 0 137.7 0 124 0C110.3 0 96.7 0 82.8 0C69 0 55 0 41.2 0C27.3 0 13.7 0 6.8 0L0 0Z" fill="#404855"></path></svg>