<svg id="visual" viewBox="0 0 950 300" width="950" height="300" xmlns="http://www.w3.org/2000/svg" xmlns:xlink="http://www.w3.org/1999/xlink" version="1.1"><rect x="0" y="0" width="950" height="300" fill="#D7D6FF"></rect><path d="M0 116L14.3 126.3C28.7 136.7 57.3 157.3 86.2 155.2C115 153 144 128 172.8 114.3C201.7 100.7 230.3 98.3 259 114.2C287.7 130 316.3 164 345.2 163.2C374 162.3 403 126.7 431.8 129.8C460.7 133 489.3 175 518.2 172.5C547 170 576 123 604.8 104C633.7 85 662.3 94 691 118.2C719.7 142.3 748.3 181.7 777.2 195.7C806 209.7 835 198.3 863.8 178.5C892.7 158.7 921.3 130.3 935.7 116.2L950 102L950 301L935.7 301C921.3 301 892.7 301 863.8 301C835 301 806 301 777.2 301C748.3 301 719.7 301 691 301C662.3 301 633.7 301 604.8 301C576 301 547 301 518.2 301C489.3 301 460.7 301 431.8 301C403 301 374 301 345.2 301C316.3 301 287.7 301 259 301C230.3 301 201.7 301 172.8 301C144 301 115 301 86.2 301C57.3 301 28.7 301 14.3 301L0 301Z" fill="#001122" stroke-linecap="round" stroke-linejoin="miter"></path></svg>