<svg id="visual" viewBox="0 0 950 300" width="950" height="300" xmlns="http://www.w3.org/2000/svg" xmlns:xlink="http://www.w3.org/1999/xlink" version="1.1"><rect x="0" y="0" width="950" height="300" fill="#D7D6FF"></rect><path d="M0 276L11.3 273.7C22.7 271.3 45.3 266.7 68 265.2C90.7 263.7 113.3 265.3 136 265.2C158.7 265 181.3 263 203.8 256.2C226.3 249.3 248.7 237.7 271.2 232.3C293.7 227 316.3 228 339 238.5C361.7 249 384.3 269 407 275.7C429.7 282.3 452.3 275.7 475 271.3C497.7 267 520.3 265 543 259.8C565.7 254.7 588.3 246.3 611 242.8C633.7 239.3 656.3 240.7 678.8 240C701.3 239.3 723.7 236.7 746.2 235.5C768.7 234.3 791.3 234.7 814 238C836.7 241.3 859.3 247.7 882 249.2C904.7 250.7 927.3 247.3 938.7 245.7L950 244L950 0L938.7 0C927.3 0 904.7 0 882 0C859.3 0 836.7 0 814 0C791.3 0 768.7 0 746.2 0C723.7 0 701.3 0 678.8 0C656.3 0 633.7 0 611 0C588.3 0 565.7 0 543 0C520.3 0 497.7 0 475 0C452.3 0 429.7 0 407 0C384.3 0 361.7 0 339 0C316.3 0 293.7 0 271.2 0C248.7 0 226.3 0 203.8 0C181.3 0 158.7 0 136 0C113.3 0 90.7 0 68 0C45.3 0 22.7 0 11.3 0L0 0Z" fill="#d7d6ff"></path><path d="M0 191L11.3 195.5C22.7 200 45.3 209 68 212.8C90.7 216.7 113.3 215.3 136 217.5C158.7 219.7 181.3 225.3 203.8 222.2C226.3 219 248.7 207 271.2 201C293.7 195 316.3 195 339 202.7C361.7 210.3 384.3 225.7 407 231.5C429.7 237.3 452.3 233.7 475 233.3C497.7 233 520.3 236 543 229C565.7 222 588.3 205 611 204.7C633.7 204.3 656.3 220.7 678.8 226.2C701.3 231.7 723.7 226.3 746.2 224.5C768.7 222.7 791.3 224.3 814 229.8C836.7 235.3 859.3 244.7 882 242.8C904.7 241 927.3 228 938.7 221.5L950 215L950 0L938.7 0C927.3 0 904.7 0 882 0C859.3 0 836.7 0 814 0C791.3 0 768.7 0 746.2 0C723.7 0 701.3 0 678.8 0C656.3 0 633.7 0 611 0C588.3 0 565.7 0 543 0C520.3 0 497.7 0 475 0C452.3 0 429.7 0 407 0C384.3 0 361.7 0 339 0C316.3 0 293.7 0 271.2 0C248.7 0 226.3 0 203.8 0C181.3 0 158.7 0 136 0C113.3 0 90.7 0 68 0C45.3 0 22.7 0 11.3 0L0 0Z" fill="#c2c3fb"></path><path d="M0 196L11.3 195.7C22.7 195.3 45.3 194.7 68 188.5C90.7 182.3 113.3 170.7 136 164.7C158.7 158.7 181.3 158.3 203.8 167.8C226.3 177.3 248.7 196.7 271.2 201.7C293.7 206.7 316.3 197.3 339 197.5C361.7 197.7 384.3 207.3 407 210.5C429.7 213.7 452.3 210.3 475 205.2C497.7 200 520.3 193 543 186C565.7 179 588.3 172 611 176.7C633.7 181.3 656.3 197.7 678.8 198.8C701.3 200 723.7 186 746.2 184.5C768.7 183 791.3 194 814 198.2C836.7 202.3 859.3 199.7 882 197.7C904.7 195.7 927.3 194.3 938.7 193.7L950 193L950 0L938.7 0C927.3 0 904.7 0 882 0C859.3 0 836.7 0 814 0C791.3 0 768.7 0 746.2 0C723.7 0 701.3 0 678.8 0C656.3 0 633.7 0 611 0C588.3 0 565.7 0 543 0C520.3 0 497.7 0 475 0C452.3 0 429.7 0 407 0C384.3 0 361.7 0 339 0C316.3 0 293.7 0 271.2 0C248.7 0 226.3 0 203.8 0C181.3 0 158.7 0 136 0C113.3 0 90.7 0 68 0C45.3 0 22.7 0 11.3 0L0 0Z" fill="#abb2f6"></path><path d="M0 130L11.3 131C22.7 132 45.3 134 68 142.7C90.7 151.3 113.3 166.7 136 166C158.7 165.3 181.3 148.7 203.8 147.8C226.3 147 248.7 162 271.2 168.7C293.7 175.3 316.3 173.7 339 171.3C361.7 169 384.3 166 407 167.3C429.7 168.7 452.3 174.3 475 178.7C497.7 183 520.3 186 543 179.2C565.7 172.3 588.3 155.7 611 155.3C633.7 155 656.3 171 678.8 174.8C701.3 178.7 723.7 170.3 746.2 162.3C768.7 154.3 791.3 146.7 814 143.7C836.7 140.7 859.3 142.3 882 147.8C904.7 153.3 927.3 162.7 938.7 167.3L950 172L950 0L938.7 0C927.3 0 904.7 0 882 0C859.3 0 836.7 0 814 0C791.3 0 768.7 0 746.2 0C723.7 0 701.3 0 678.8 0C656.3 0 633.7 0 611 0C588.3 0 565.7 0 543 0C520.3 0 497.7 0 475 0C452.3 0 429.7 0 407 0C384.3 0 361.7 0 339 0C316.3 0 293.7 0 271.2 0C248.7 0 226.3 0 203.8 0C181.3 0 158.7 0 136 0C113.3 0 90.7 0 68 0C45.3 0 22.7 0 11.3 0L0 0Z" fill="#98a4f3"></path><path d="M0 150L11.3 145.2C22.7 140.3 45.3 130.7 68 128.2C90.7 125.7 113.3 130.3 136 133.8C158.7 137.3 181.3 139.7 203.8 136.3C226.3 133 248.7 124 271.2 124.5C293.7 125 316.3 135 339 134.7C361.7 134.3 384.3 123.7 407 122.5C429.7 121.3 452.3 129.7 475 132.7C497.7 135.7 520.3 133.3 543 128.5C565.7 123.7 588.3 116.3 611 112.3C633.7 108.3 656.3 107.7 678.8 109.3C701.3 111 723.7 115 746.2 114.5C768.7 114 791.3 109 814 112.5C836.7 116 859.3 128 882 127.3C904.7 126.7 927.3 113.3 938.7 106.7L950 100L950 0L938.7 0C927.3 0 904.7 0 882 0C859.3 0 836.7 0 814 0C791.3 0 768.7 0 746.2 0C723.7 0 701.3 0 678.8 0C656.3 0 633.7 0 611 0C588.3 0 565.7 0 543 0C520.3 0 497.7 0 475 0C452.3 0 429.7 0 407 0C384.3 0 361.7 0 339 0C316.3 0 293.7 0 271.2 0C248.7 0 226.3 0 203.8 0C181.3 0 158.7 0 136 0C113.3 0 90.7 0 68 0C45.3 0 22.7 0 11.3 0L0 0Z" fill="#98a4f3"></path><path d="M0 100L11.3 96.2C22.7 92.3 45.3 84.7 68 81C90.7 77.3 113.3 77.7 136 78C158.7 78.3 181.3 78.7 203.8 84.7C226.3 90.7 248.7 102.3 271.2 104.8C293.7 107.3 316.3 100.7 339 97.8C361.7 95 384.3 96 407 94C429.7 92 452.3 87 475 86.8C497.7 86.7 520.3 91.3 543 95.8C565.7 100.3 588.3 104.7 611 102.7C633.7 100.7 656.3 92.3 678.8 87.2C701.3 82 723.7 80 746.2 82.5C768.7 85 791.3 92 814 90.8C836.7 89.7 859.3 80.3 882 77.7C904.7 75 927.3 79 938.7 81L950 83L950 0L938.7 0C927.3 0 904.7 0 882 0C859.3 0 836.7 0 814 0C791.3 0 768.7 0 746.2 0C723.7 0 701.3 0 678.8 0C656.3 0 633.7 0 611 0C588.3 0 565.7 0 543 0C520.3 0 497.7 0 475 0C452.3 0 429.7 0 407 0C384.3 0 361.7 0 339 0C316.3 0 293.7 0 271.2 0C248.7 0 226.3 0 203.8 0C181.3 0 158.7 0 136 0C113.3 0 90.7 0 68 0C45.3 0 22.7 0 11.3 0L0 0Z" fill="#abb2f6"></path><path d="M0 87L11.3 80.5C22.7 74 45.3 61 68 58.2C90.7 55.3 113.3 62.7 136 65C158.7 67.3 181.3 64.7 203.8 61.7C226.3 58.7 248.7 55.3 271.2 52.7C293.7 50 316.3 48 339 51.5C361.7 55 384.3 64 407 71C429.7 78 452.3 83 475 77.3C497.7 71.7 520.3 55.3 543 48.7C565.7 42 588.3 45 611 53.2C633.7 61.3 656.3 74.7 678.8 74.5C701.3 74.3 723.7 60.7 746.2 59C768.7 57.3 791.3 67.7 814 71.2C836.7 74.7 859.3 71.3 882 64.5C904.7 57.7 927.3 47.3 938.7 42.2L950 37L950 0L938.7 0C927.3 0 904.7 0 882 0C859.3 0 836.7 0 814 0C791.3 0 768.7 0 746.2 0C723.7 0 701.3 0 678.8 0C656.3 0 633.7 0 611 0C588.3 0 565.7 0 543 0C520.3 0 497.7 0 475 0C452.3 0 429.7 0 407 0C384.3 0 361.7 0 339 0C316.3 0 293.7 0 271.2 0C248.7 0 226.3 0 203.8 0C181.3 0 158.7 0 136 0C113.3 0 90.7 0 68 0C45.3 0 22.7 0 11.3 0L0 0Z" fill="#c2c3fb"></path><path d="M0 7L11.3 13.3C22.7 19.7 45.3 32.3 68 34.8C90.7 37.3 113.3 29.7 136 24.8C158.7 20 181.3 18 203.8 22.7C226.3 27.3 248.7 38.7 271.2 40C293.7 41.3 316.3 32.7 339 30.3C361.7 28 384.3 32 407 31.3C429.7 30.7 452.3 25.3 475 27.7C497.7 30 520.3 40 543 44.2C565.7 48.3 588.3 46.7 611 39.3C633.7 32 656.3 19 678.8 12.8C701.3 6.7 723.7 7.3 746.2 7.7C768.7 8 791.3 8 814 15.7C836.7 23.3 859.3 38.7 882 44.5C904.7 50.3 927.3 46.7 938.7 44.8L950 43L950 0L938.7 0C927.3 0 904.7 0 882 0C859.3 0 836.7 0 814 0C791.3 0 768.7 0 746.2 0C723.7 0 701.3 0 678.8 0C656.3 0 633.7 0 611 0C588.3 0 565.7 0 543 0C520.3 0 497.7 0 475 0C452.3 0 429.7 0 407 0C384.3 0 361.7 0 339 0C316.3 0 293.7 0 271.2 0C248.7 0 226.3 0 203.8 0C181.3 0 158.7 0 136 0C113.3 0 90.7 0 68 0C45.3 0 22.7 0 11.3 0L0 0Z" fill="#d7d6ff"></path></svg>