<svg id="visual" viewBox="0 0 950 300" width="950" height="300" xmlns="http://www.w3.org/2000/svg" xmlns:xlink="http://www.w3.org/1999/xlink" version="1.1"><rect x="0" y="0" width="950" height="300" fill="#D7D6FF"></rect><path d="M0 235L9.3 236.7C18.7 238.3 37.3 241.7 56 231C74.7 220.3 93.3 195.7 112 183.2C130.7 170.7 149.3 170.3 168 177.2C186.7 184 205.3 198 223.8 199.5C242.3 201 260.7 190 279.2 189.7C297.7 189.3 316.3 199.7 335 201.3C353.7 203 372.3 196 391 196.7C409.7 197.3 428.3 205.7 447 204.7C465.7 203.7 484.3 193.3 503 195.8C521.7 198.3 540.3 213.7 559 217.2C577.7 220.7 596.3 212.3 615 218.5C633.7 224.7 652.3 245.3 670.8 247.5C689.3 249.7 707.7 233.3 726.2 222.5C744.7 211.7 763.3 206.3 782 214.3C800.7 222.3 819.3 243.7 838 240.5C856.7 237.3 875.3 209.7 894 198.2C912.7 186.7 931.3 191.3 940.7 193.7L950 196L950 0L940.7 0C931.3 0 912.7 0 894 0C875.3 0 856.7 0 838 0C819.3 0 800.7 0 782 0C763.3 0 744.7 0 726.2 0C707.7 0 689.3 0 670.8 0C652.3 0 633.7 0 615 0C596.3 0 577.7 0 559 0C540.3 0 521.7 0 503 0C484.3 0 465.7 0 447 0C428.3 0 409.7 0 391 0C372.3 0 353.7 0 335 0C316.3 0 297.7 0 279.2 0C260.7 0 242.3 0 223.8 0C205.3 0 186.7 0 168 0C149.3 0 130.7 0 112 0C93.3 0 74.7 0 56 0C37.3 0 18.7 0 9.3 0L0 0Z" fill="#7789ff"></path><path d="M0 209L9.3 198.2C18.7 187.3 37.3 165.7 56 166.8C74.7 168 93.3 192 112 204.3C130.7 216.7 149.3 217.3 168 207.7C186.7 198 205.3 178 223.8 179.5C242.3 181 260.7 204 279.2 216.5C297.7 229 316.3 231 335 226.5C353.7 222 372.3 211 391 201.3C409.7 191.7 428.3 183.3 447 187.3C465.7 191.3 484.3 207.7 503 216.3C521.7 225 540.3 226 559 214C577.7 202 596.3 177 615 162.7C633.7 148.3 652.3 144.7 670.8 155.8C689.3 167 707.7 193 726.2 207.2C744.7 221.3 763.3 223.7 782 216C800.7 208.3 819.3 190.7 838 178.5C856.7 166.3 875.3 159.7 894 161.7C912.7 163.7 931.3 174.3 940.7 179.7L950 185L950 0L940.7 0C931.3 0 912.7 0 894 0C875.3 0 856.7 0 838 0C819.3 0 800.7 0 782 0C763.3 0 744.7 0 726.2 0C707.7 0 689.3 0 670.8 0C652.3 0 633.7 0 615 0C596.3 0 577.7 0 559 0C540.3 0 521.7 0 503 0C484.3 0 465.7 0 447 0C428.3 0 409.7 0 391 0C372.3 0 353.7 0 335 0C316.3 0 297.7 0 279.2 0C260.7 0 242.3 0 223.8 0C205.3 0 186.7 0 168 0C149.3 0 130.7 0 112 0C93.3 0 74.7 0 56 0C37.3 0 18.7 0 9.3 0L0 0Z" fill="#8894ff"></path><path d="M0 138L9.3 151C18.7 164 37.3 190 56 194.7C74.7 199.3 93.3 182.7 112 182.3C130.7 182 149.3 198 168 193C186.7 188 205.3 162 223.8 157.5C242.3 153 260.7 170 279.2 172.2C297.7 174.3 316.3 161.7 335 152.3C353.7 143 372.3 137 391 145.2C409.7 153.3 428.3 175.7 447 181.5C465.7 187.3 484.3 176.7 503 171.7C521.7 166.7 540.3 167.3 559 167.2C577.7 167 596.3 166 615 166.8C633.7 167.7 652.3 170.3 670.8 178.2C689.3 186 707.7 199 726.2 199C744.7 199 763.3 186 782 174.7C800.7 163.3 819.3 153.7 838 146.8C856.7 140 875.3 136 894 146.8C912.7 157.7 931.3 183.3 940.7 196.2L950 209L950 0L940.7 0C931.3 0 912.7 0 894 0C875.3 0 856.7 0 838 0C819.3 0 800.7 0 782 0C763.3 0 744.7 0 726.2 0C707.7 0 689.3 0 670.8 0C652.3 0 633.7 0 615 0C596.3 0 577.7 0 559 0C540.3 0 521.7 0 503 0C484.3 0 465.7 0 447 0C428.3 0 409.7 0 391 0C372.3 0 353.7 0 335 0C316.3 0 297.7 0 279.2 0C260.7 0 242.3 0 223.8 0C205.3 0 186.7 0 168 0C149.3 0 130.7 0 112 0C93.3 0 74.7 0 56 0C37.3 0 18.7 0 9.3 0L0 0Z" fill="#989fff"></path><path d="M0 127L9.3 137C18.7 147 37.3 167 56 171.3C74.7 175.7 93.3 164.3 112 162.7C130.7 161 149.3 169 168 161.8C186.7 154.7 205.3 132.3 223.8 132.8C242.3 133.3 260.7 156.7 279.2 161.5C297.7 166.3 316.3 152.7 335 153.5C353.7 154.3 372.3 169.7 391 176C409.7 182.3 428.3 179.7 447 170.2C465.7 160.7 484.3 144.3 503 138.5C521.7 132.7 540.3 137.3 559 144C577.7 150.7 596.3 159.3 615 163C633.7 166.7 652.3 165.3 670.8 156.5C689.3 147.7 707.7 131.3 726.2 134.5C744.7 137.7 763.3 160.3 782 171.5C800.7 182.7 819.3 182.3 838 180.7C856.7 179 875.3 176 894 177C912.7 178 931.3 183 940.7 185.5L950 188L950 0L940.7 0C931.3 0 912.7 0 894 0C875.3 0 856.7 0 838 0C819.3 0 800.7 0 782 0C763.3 0 744.7 0 726.2 0C707.7 0 689.3 0 670.8 0C652.3 0 633.7 0 615 0C596.3 0 577.7 0 559 0C540.3 0 521.7 0 503 0C484.3 0 465.7 0 447 0C428.3 0 409.7 0 391 0C372.3 0 353.7 0 335 0C316.3 0 297.7 0 279.2 0C260.7 0 242.3 0 223.8 0C205.3 0 186.7 0 168 0C149.3 0 130.7 0 112 0C93.3 0 74.7 0 56 0C37.3 0 18.7 0 9.3 0L0 0Z" fill="#a7abff"></path><path d="M0 157L9.3 160.3C18.7 163.7 37.3 170.3 56 168.3C74.7 166.3 93.3 155.7 112 150.3C130.7 145 149.3 145 168 141.3C186.7 137.7 205.3 130.3 223.8 133.5C242.3 136.7 260.7 150.3 279.2 157.2C297.7 164 316.3 164 335 161C353.7 158 372.3 152 391 149C409.7 146 428.3 146 447 141C465.7 136 484.3 126 503 130.7C521.7 135.3 540.3 154.7 559 154.3C577.7 154 596.3 134 615 125.2C633.7 116.3 652.3 118.7 670.8 128.3C689.3 138 707.7 155 726.2 151.3C744.7 147.7 763.3 123.3 782 123C800.7 122.7 819.3 146.3 838 153.8C856.7 161.3 875.3 152.7 894 150.3C912.7 148 931.3 152 940.7 154L950 156L950 0L940.7 0C931.3 0 912.7 0 894 0C875.3 0 856.7 0 838 0C819.3 0 800.7 0 782 0C763.3 0 744.7 0 726.2 0C707.7 0 689.3 0 670.8 0C652.3 0 633.7 0 615 0C596.3 0 577.7 0 559 0C540.3 0 521.7 0 503 0C484.3 0 465.7 0 447 0C428.3 0 409.7 0 391 0C372.3 0 353.7 0 335 0C316.3 0 297.7 0 279.2 0C260.7 0 242.3 0 223.8 0C205.3 0 186.7 0 168 0C149.3 0 130.7 0 112 0C93.3 0 74.7 0 56 0C37.3 0 18.7 0 9.3 0L0 0Z" fill="#b5b6ff"></path><path d="M0 119L9.3 122C18.7 125 37.3 131 56 124.5C74.7 118 93.3 99 112 95.3C130.7 91.7 149.3 103.3 168 108C186.7 112.7 205.3 110.3 223.8 105C242.3 99.7 260.7 91.3 279.2 96.8C297.7 102.3 316.3 121.7 335 125.3C353.7 129 372.3 117 391 113C409.7 109 428.3 113 447 110.7C465.7 108.3 484.3 99.7 503 101.7C521.7 103.7 540.3 116.3 559 115.2C577.7 114 596.3 99 615 95.8C633.7 92.7 652.3 101.3 670.8 104.5C689.3 107.7 707.7 105.3 726.2 104.8C744.7 104.3 763.3 105.7 782 109.2C800.7 112.7 819.3 118.3 838 118.2C856.7 118 875.3 112 894 109C912.7 106 931.3 106 940.7 106L950 106L950 0L940.7 0C931.3 0 912.7 0 894 0C875.3 0 856.7 0 838 0C819.3 0 800.7 0 782 0C763.3 0 744.7 0 726.2 0C707.7 0 689.3 0 670.8 0C652.3 0 633.7 0 615 0C596.3 0 577.7 0 559 0C540.3 0 521.7 0 503 0C484.3 0 465.7 0 447 0C428.3 0 409.7 0 391 0C372.3 0 353.7 0 335 0C316.3 0 297.7 0 279.2 0C260.7 0 242.3 0 223.8 0C205.3 0 186.7 0 168 0C149.3 0 130.7 0 112 0C93.3 0 74.7 0 56 0C37.3 0 18.7 0 9.3 0L0 0Z" fill="#c2c2ff"></path><path d="M0 73L9.3 80.2C18.7 87.3 37.3 101.7 56 102.5C74.7 103.3 93.3 90.7 112 86.8C130.7 83 149.3 88 168 97.2C186.7 106.3 205.3 119.7 223.8 116.7C242.3 113.7 260.7 94.3 279.2 86.7C297.7 79 316.3 83 335 81.7C353.7 80.3 372.3 73.7 391 71.2C409.7 68.7 428.3 70.3 447 74.7C465.7 79 484.3 86 503 94.8C521.7 103.7 540.3 114.3 559 119.5C577.7 124.7 596.3 124.3 615 120.3C633.7 116.3 652.3 108.7 670.8 106.3C689.3 104 707.7 107 726.2 109.7C744.7 112.3 763.3 114.7 782 111.2C800.7 107.7 819.3 98.3 838 100.8C856.7 103.3 875.3 117.7 894 122.3C912.7 127 931.3 122 940.7 119.5L950 117L950 0L940.7 0C931.3 0 912.7 0 894 0C875.3 0 856.7 0 838 0C819.3 0 800.7 0 782 0C763.3 0 744.7 0 726.2 0C707.7 0 689.3 0 670.8 0C652.3 0 633.7 0 615 0C596.3 0 577.7 0 559 0C540.3 0 521.7 0 503 0C484.3 0 465.7 0 447 0C428.3 0 409.7 0 391 0C372.3 0 353.7 0 335 0C316.3 0 297.7 0 279.2 0C260.7 0 242.3 0 223.8 0C205.3 0 186.7 0 168 0C149.3 0 130.7 0 112 0C93.3 0 74.7 0 56 0C37.3 0 18.7 0 9.3 0L0 0Z" fill="#cfceff"></path><path d="M0 76L9.3 81.5C18.7 87 37.3 98 56 96C74.7 94 93.3 79 112 76.5C130.7 74 149.3 84 168 87.7C186.7 91.3 205.3 88.7 223.8 82.8C242.3 77 260.7 68 279.2 63.3C297.7 58.7 316.3 58.3 335 66C353.7 73.7 372.3 89.3 391 94.5C409.7 99.7 428.3 94.3 447 95.3C465.7 96.3 484.3 103.7 503 107.3C521.7 111 540.3 111 559 104.3C577.7 97.7 596.3 84.3 615 76C633.7 67.7 652.3 64.3 670.8 70C689.3 75.7 707.7 90.3 726.2 91.2C744.7 92 763.3 79 782 69.7C800.7 60.3 819.3 54.7 838 60.2C856.7 65.7 875.3 82.3 894 87.2C912.7 92 931.3 85 940.7 81.5L950 78L950 0L940.7 0C931.3 0 912.7 0 894 0C875.3 0 856.7 0 838 0C819.3 0 800.7 0 782 0C763.3 0 744.7 0 726.2 0C707.7 0 689.3 0 670.8 0C652.3 0 633.7 0 615 0C596.3 0 577.7 0 559 0C540.3 0 521.7 0 503 0C484.3 0 465.7 0 447 0C428.3 0 409.7 0 391 0C372.3 0 353.7 0 335 0C316.3 0 297.7 0 279.2 0C260.7 0 242.3 0 223.8 0C205.3 0 186.7 0 168 0C149.3 0 130.7 0 112 0C93.3 0 74.7 0 56 0C37.3 0 18.7 0 9.3 0L0 0Z" fill="#dbdaff"></path><path d="M0 76L9.3 73.8C18.7 71.7 37.3 67.3 56 66.7C74.7 66 93.3 69 112 66.3C130.7 63.7 149.3 55.3 168 53C186.7 50.7 205.3 54.3 223.8 55C242.3 55.7 260.7 53.3 279.2 53.3C297.7 53.3 316.3 55.7 335 61.5C353.7 67.3 372.3 76.7 391 75C409.7 73.3 428.3 60.7 447 53.5C465.7 46.3 484.3 44.7 503 46C521.7 47.3 540.3 51.7 559 50C577.7 48.3 596.3 40.7 615 42.3C633.7 44 652.3 55 670.8 63.3C689.3 71.7 707.7 77.3 726.2 71.5C744.7 65.7 763.3 48.3 782 41.2C800.7 34 819.3 37 838 44C856.7 51 875.3 62 894 64.5C912.7 67 931.3 61 940.7 58L950 55L950 0L940.7 0C931.3 0 912.7 0 894 0C875.3 0 856.7 0 838 0C819.3 0 800.7 0 782 0C763.3 0 744.7 0 726.2 0C707.7 0 689.3 0 670.8 0C652.3 0 633.7 0 615 0C596.3 0 577.7 0 559 0C540.3 0 521.7 0 503 0C484.3 0 465.7 0 447 0C428.3 0 409.7 0 391 0C372.3 0 353.7 0 335 0C316.3 0 297.7 0 279.2 0C260.7 0 242.3 0 223.8 0C205.3 0 186.7 0 168 0C149.3 0 130.7 0 112 0C93.3 0 74.7 0 56 0C37.3 0 18.7 0 9.3 0L0 0Z" fill="#e7e6ff"></path><path d="M0 31L9.3 30.2C18.7 29.3 37.3 27.7 56 30.5C74.7 33.3 93.3 40.7 112 45.8C130.7 51 149.3 54 168 57C186.7 60 205.3 63 223.8 60.8C242.3 58.7 260.7 51.3 279.2 49.2C297.7 47 316.3 50 335 51.3C353.7 52.7 372.3 52.3 391 48C409.7 43.7 428.3 35.3 447 30.7C465.7 26 484.3 25 503 26.3C521.7 27.7 540.3 31.3 559 36.5C577.7 41.7 596.3 48.3 615 50.2C633.7 52 652.3 49 670.8 48.5C689.3 48 707.7 50 726.2 50C744.7 50 763.3 48 782 47.5C800.7 47 819.3 48 838 47.2C856.7 46.3 875.3 43.7 894 41.3C912.7 39 931.3 37 940.7 36L950 35L950 0L940.7 0C931.3 0 912.7 0 894 0C875.3 0 856.7 0 838 0C819.3 0 800.7 0 782 0C763.3 0 744.7 0 726.2 0C707.7 0 689.3 0 670.8 0C652.3 0 633.7 0 615 0C596.3 0 577.7 0 559 0C540.3 0 521.7 0 503 0C484.3 0 465.7 0 447 0C428.3 0 409.7 0 391 0C372.3 0 353.7 0 335 0C316.3 0 297.7 0 279.2 0C260.7 0 242.3 0 223.8 0C205.3 0 186.7 0 168 0C149.3 0 130.7 0 112 0C93.3 0 74.7 0 56 0C37.3 0 18.7 0 9.3 0L0 0Z" fill="#f3f3ff"></path><path d="M0 44L9.3 39.2C18.7 34.3 37.3 24.7 56 24C74.7 23.3 93.3 31.7 112 31.5C130.7 31.3 149.3 22.7 168 18.5C186.7 14.3 205.3 14.7 223.8 18.3C242.3 22 260.7 29 279.2 27.2C297.7 25.3 316.3 14.7 335 15.2C353.7 15.7 372.3 27.3 391 31.2C409.7 35 428.3 31 447 27.8C465.7 24.7 484.3 22.3 503 22C521.7 21.7 540.3 23.3 559 20.7C577.7 18 596.3 11 615 11.7C633.7 12.3 652.3 20.7 670.8 26C689.3 31.3 707.7 33.7 726.2 31.5C744.7 29.3 763.3 22.7 782 22.7C800.7 22.7 819.3 29.3 838 31.3C856.7 33.3 875.3 30.7 894 25.7C912.7 20.7 931.3 13.3 940.7 9.7L950 6L950 0L940.7 0C931.3 0 912.7 0 894 0C875.3 0 856.7 0 838 0C819.3 0 800.7 0 782 0C763.3 0 744.7 0 726.2 0C707.7 0 689.3 0 670.8 0C652.3 0 633.7 0 615 0C596.3 0 577.7 0 559 0C540.3 0 521.7 0 503 0C484.3 0 465.7 0 447 0C428.3 0 409.7 0 391 0C372.3 0 353.7 0 335 0C316.3 0 297.7 0 279.2 0C260.7 0 242.3 0 223.8 0C205.3 0 186.7 0 168 0C149.3 0 130.7 0 112 0C93.3 0 74.7 0 56 0C37.3 0 18.7 0 9.3 0L0 0Z" fill="#ffffff"></path></svg>