<svg id="visual" viewBox="0 0 960 300" width="960" height="300" xmlns="http://www.w3.org/2000/svg" xmlns:xlink="http://www.w3.org/1999/xlink" version="1.1"><rect x="0" y="0" width="960" height="300" fill="#001122"></rect><path d="M0 229L22.8 226.2C45.7 223.3 91.3 217.7 137 211.7C182.7 205.7 228.3 199.3 274 202.2C319.7 205 365.3 217 411.2 218.8C457 220.7 503 212.3 548.8 211.2C594.7 210 640.3 216 686 210.2C731.7 204.3 777.3 186.7 823 186C868.7 185.3 914.3 201.7 937.2 209.8L960 218L960 0L937.2 0C914.3 0 868.7 0 823 0C777.3 0 731.7 0 686 0C640.3 0 594.7 0 548.8 0C503 0 457 0 411.2 0C365.3 0 319.7 0 274 0C228.3 0 182.7 0 137 0C91.3 0 45.7 0 22.8 0L0 0Z" fill="#0066ff"></path><path d="M0 144L22.8 152.2C45.7 160.3 91.3 176.7 137 184.2C182.7 191.7 228.3 190.3 274 188.8C319.7 187.3 365.3 185.7 411.2 184.2C457 182.7 503 181.3 548.8 188C594.7 194.7 640.3 209.3 686 203.2C731.7 197 777.3 170 823 162.5C868.7 155 914.3 167 937.2 173L960 179L960 0L937.2 0C914.3 0 868.7 0 823 0C777.3 0 731.7 0 686 0C640.3 0 594.7 0 548.8 0C503 0 457 0 411.2 0C365.3 0 319.7 0 274 0C228.3 0 182.7 0 137 0C91.3 0 45.7 0 22.8 0L0 0Z" fill="#0052bf"></path><path d="M0 140L22.8 139.2C45.7 138.3 91.3 136.7 137 145.3C182.7 154 228.3 173 274 175.5C319.7 178 365.3 164 411.2 155.2C457 146.3 503 142.7 548.8 146C594.7 149.3 640.3 159.7 686 160C731.7 160.3 777.3 150.7 823 150.5C868.7 150.3 914.3 159.7 937.2 164.3L960 169L960 0L937.2 0C914.3 0 868.7 0 823 0C777.3 0 731.7 0 686 0C640.3 0 594.7 0 548.8 0C503 0 457 0 411.2 0C365.3 0 319.7 0 274 0C228.3 0 182.7 0 137 0C91.3 0 45.7 0 22.8 0L0 0Z" fill="#003d81"></path><path d="M0 119L22.8 120.3C45.7 121.7 91.3 124.3 137 122.2C182.7 120 228.3 113 274 110.3C319.7 107.7 365.3 109.3 411.2 113.5C457 117.7 503 124.3 548.8 129.8C594.7 135.3 640.3 139.7 686 142.8C731.7 146 777.3 148 823 142C868.7 136 914.3 122 937.2 115L960 108L960 0L937.2 0C914.3 0 868.7 0 823 0C777.3 0 731.7 0 686 0C640.3 0 594.7 0 548.8 0C503 0 457 0 411.2 0C365.3 0 319.7 0 274 0C228.3 0 182.7 0 137 0C91.3 0 45.7 0 22.8 0L0 0Z" fill="#022a51"></path><path d="M0 135L22.8 125.8C45.7 116.7 91.3 98.3 137 96C182.7 93.7 228.3 107.3 274 108.8C319.7 110.3 365.3 99.7 411.2 96.5C457 93.3 503 97.7 548.8 100.5C594.7 103.3 640.3 104.7 686 109.2C731.7 113.7 777.3 121.3 823 117.7C868.7 114 914.3 99 937.2 91.5L960 84L960 0L937.2 0C914.3 0 868.7 0 823 0C777.3 0 731.7 0 686 0C640.3 0 594.7 0 548.8 0C503 0 457 0 411.2 0C365.3 0 319.7 0 274 0C228.3 0 182.7 0 137 0C91.3 0 45.7 0 22.8 0L0 0Z" fill="#022a51"></path><path d="M0 71L22.8 70.8C45.7 70.7 91.3 70.3 137 69.8C182.7 69.3 228.3 68.7 274 74.8C319.7 81 365.3 94 411.2 94.8C457 95.7 503 84.3 548.8 84C594.7 83.7 640.3 94.3 686 98.3C731.7 102.3 777.3 99.7 823 92.8C868.7 86 914.3 75 937.2 69.5L960 64L960 0L937.2 0C914.3 0 868.7 0 823 0C777.3 0 731.7 0 686 0C640.3 0 594.7 0 548.8 0C503 0 457 0 411.2 0C365.3 0 319.7 0 274 0C228.3 0 182.7 0 137 0C91.3 0 45.7 0 22.8 0L0 0Z" fill="#003d81"></path><path d="M0 60L22.8 58.7C45.7 57.3 91.3 54.7 137 51.3C182.7 48 228.3 44 274 44.3C319.7 44.7 365.3 49.3 411.2 55.7C457 62 503 70 548.8 70.8C594.7 71.7 640.3 65.3 686 63.2C731.7 61 777.3 63 823 64.2C868.7 65.3 914.3 65.7 937.2 65.8L960 66L960 0L937.2 0C914.3 0 868.7 0 823 0C777.3 0 731.7 0 686 0C640.3 0 594.7 0 548.8 0C503 0 457 0 411.2 0C365.3 0 319.7 0 274 0C228.3 0 182.7 0 137 0C91.3 0 45.7 0 22.8 0L0 0Z" fill="#0052bf"></path><path d="M0 40L22.8 38.7C45.7 37.3 91.3 34.7 137 34.7C182.7 34.7 228.3 37.3 274 37.2C319.7 37 365.3 34 411.2 30.7C457 27.3 503 23.7 548.8 22C594.7 20.3 640.3 20.7 686 25.5C731.7 30.3 777.3 39.7 823 41.5C868.7 43.3 914.3 37.7 937.2 34.8L960 32L960 0L937.2 0C914.3 0 868.7 0 823 0C777.3 0 731.7 0 686 0C640.3 0 594.7 0 548.8 0C503 0 457 0 411.2 0C365.3 0 319.7 0 274 0C228.3 0 182.7 0 137 0C91.3 0 45.7 0 22.8 0L0 0Z" fill="#0066ff"></path></svg>