<svg id="visual" viewBox="0 0 950 50" width="950" height="50" xmlns="http://www.w3.org/2000/svg" xmlns:xlink="http://www.w3.org/1999/xlink" version="1.1"><rect x="0" y="0" width="950" height="50" fill="#001122"></rect><path d="M0 39L136 35L271 37L407 36L543 34L679 34L814 37L950 36L950 51L814 51L679 51L543 51L407 51L271 51L136 51L0 51Z" fill="#98a4f3"></path><path d="M0 41L136 39L271 37L407 40L543 39L679 36L814 38L950 39L950 51L814 51L679 51L543 51L407 51L271 51L136 51L0 51Z" fill="#b0b7f6"></path><path d="M0 39L136 39L271 42L407 42L543 41L679 40L814 41L950 42L950 51L814 51L679 51L543 51L407 51L271 51L136 51L0 51Z" fill="#c7caf9"></path><path d="M0 43L136 45L271 42L407 44L543 41L679 42L814 42L950 45L950 51L814 51L679 51L543 51L407 51L271 51L136 51L0 51Z" fill="#dcddfc"></path><path d="M0 46L136 47L271 46L407 47L543 46L679 46L814 47L950 45L950 51L814 51L679 51L543 51L407 51L271 51L136 51L0 51Z" fill="#f1f1fe"></path></svg>