<svg id="visual" viewBox="0 0 950 300" width="950" height="300" xmlns="http://www.w3.org/2000/svg" xmlns:xlink="http://www.w3.org/1999/xlink" version="1.1"><rect x="0" y="0" width="950" height="300" fill="#D7D6FF"></rect><path d="M0 50L6.8 46.7C13.7 43.3 27.3 36.7 41.2 37.8C55 39 69 48 82.8 50C96.7 52 110.3 47 124 45.3C137.7 43.7 151.3 45.3 165.2 42.8C179 40.3 193 33.7 206.8 30.3C220.7 27 234.3 27 248 28.2C261.7 29.3 275.3 31.7 289 36C302.7 40.3 316.3 46.7 330.2 48.7C344 50.7 358 48.3 371.8 45.7C385.7 43 399.3 40 413 38.3C426.7 36.7 440.3 36.3 454.2 37.3C468 38.3 482 40.7 495.8 42.5C509.7 44.3 523.3 45.7 537 44.8C550.7 44 564.3 41 578.2 38.5C592 36 606 34 619.8 33.5C633.7 33 647.3 34 661 33.2C674.7 32.3 688.3 29.7 702 31.3C715.7 33 729.3 39 743.2 42.8C757 46.7 771 48.3 784.8 49.7C798.7 51 812.3 52 826 50.5C839.7 49 853.3 45 867.2 41.2C881 37.3 895 33.7 908.8 33.2C922.7 32.7 936.3 35.3 943.2 36.7L950 38L950 0L943.2 0C936.3 0 922.7 0 908.8 0C895 0 881 0 867.2 0C853.3 0 839.7 0 826 0C812.3 0 798.7 0 784.8 0C771 0 757 0 743.2 0C729.3 0 715.7 0 702 0C688.3 0 674.7 0 661 0C647.3 0 633.7 0 619.8 0C606 0 592 0 578.2 0C564.3 0 550.7 0 537 0C523.3 0 509.7 0 495.8 0C482 0 468 0 454.2 0C440.3 0 426.7 0 413 0C399.3 0 385.7 0 371.8 0C358 0 344 0 330.2 0C316.3 0 302.7 0 289 0C275.3 0 261.7 0 248 0C234.3 0 220.7 0 206.8 0C193 0 179 0 165.2 0C151.3 0 137.7 0 124 0C110.3 0 96.7 0 82.8 0C69 0 55 0 41.2 0C27.3 0 13.7 0 6.8 0L0 0Z" fill="#7789ff"></path><path d="M0 38L6.8 35.5C13.7 33 27.3 28 41.2 29.2C55 30.3 69 37.7 82.8 38.5C96.7 39.3 110.3 33.7 124 30.5C137.7 27.3 151.3 26.7 165.2 29.8C179 33 193 40 206.8 40.2C220.7 40.3 234.3 33.7 248 29.5C261.7 25.3 275.3 23.7 289 26.7C302.7 29.7 316.3 37.3 330.2 38.5C344 39.7 358 34.3 371.8 31.3C385.7 28.3 399.3 27.7 413 30.2C426.7 32.7 440.3 38.3 454.2 41C468 43.7 482 43.3 495.8 40.7C509.7 38 523.3 33 537 32.8C550.7 32.7 564.3 37.3 578.2 37.3C592 37.3 606 32.7 619.8 31.7C633.7 30.7 647.3 33.3 661 33.5C674.7 33.7 688.3 31.3 702 31.3C715.7 31.3 729.3 33.7 743.2 35.5C757 37.3 771 38.7 784.8 36.8C798.7 35 812.3 30 826 30.7C839.7 31.3 853.3 37.7 867.2 41.3C881 45 895 46 908.8 44.2C922.7 42.3 936.3 37.7 943.2 35.3L950 33L950 0L943.2 0C936.3 0 922.7 0 908.8 0C895 0 881 0 867.2 0C853.3 0 839.7 0 826 0C812.3 0 798.7 0 784.8 0C771 0 757 0 743.2 0C729.3 0 715.7 0 702 0C688.3 0 674.7 0 661 0C647.3 0 633.7 0 619.8 0C606 0 592 0 578.2 0C564.3 0 550.7 0 537 0C523.3 0 509.7 0 495.8 0C482 0 468 0 454.2 0C440.3 0 426.7 0 413 0C399.3 0 385.7 0 371.8 0C358 0 344 0 330.2 0C316.3 0 302.7 0 289 0C275.3 0 261.7 0 248 0C234.3 0 220.7 0 206.8 0C193 0 179 0 165.2 0C151.3 0 137.7 0 124 0C110.3 0 96.7 0 82.8 0C69 0 55 0 41.2 0C27.3 0 13.7 0 6.8 0L0 0Z" fill="#8a95ff"></path><path d="M0 22L6.8 25.3C13.7 28.7 27.3 35.3 41.2 38.8C55 42.3 69 42.7 82.8 40.2C96.7 37.7 110.3 32.3 124 28.3C137.7 24.3 151.3 21.7 165.2 20.8C179 20 193 21 206.8 21.7C220.7 22.3 234.3 22.7 248 22.2C261.7 21.7 275.3 20.3 289 22.8C302.7 25.3 316.3 31.7 330.2 35.5C344 39.3 358 40.7 371.8 40C385.7 39.3 399.3 36.7 413 35.5C426.7 34.3 440.3 34.7 454.2 36.2C468 37.7 482 40.3 495.8 38.3C509.7 36.3 523.3 29.7 537 28.8C550.7 28 564.3 33 578.2 36C592 39 606 40 619.8 36.5C633.7 33 647.3 25 661 24C674.7 23 688.3 29 702 32.2C715.7 35.3 729.3 35.7 743.2 35.5C757 35.3 771 34.7 784.8 32.3C798.7 30 812.3 26 826 24.8C839.7 23.7 853.3 25.3 867.2 26.5C881 27.7 895 28.3 908.8 27.3C922.7 26.3 936.3 23.7 943.2 22.3L950 21L950 0L943.2 0C936.3 0 922.7 0 908.8 0C895 0 881 0 867.2 0C853.3 0 839.7 0 826 0C812.3 0 798.7 0 784.8 0C771 0 757 0 743.2 0C729.3 0 715.7 0 702 0C688.3 0 674.7 0 661 0C647.3 0 633.7 0 619.8 0C606 0 592 0 578.2 0C564.3 0 550.7 0 537 0C523.3 0 509.7 0 495.8 0C482 0 468 0 454.2 0C440.3 0 426.7 0 413 0C399.3 0 385.7 0 371.8 0C358 0 344 0 330.2 0C316.3 0 302.7 0 289 0C275.3 0 261.7 0 248 0C234.3 0 220.7 0 206.8 0C193 0 179 0 165.2 0C151.3 0 137.7 0 124 0C110.3 0 96.7 0 82.8 0C69 0 55 0 41.2 0C27.3 0 13.7 0 6.8 0L0 0Z" fill="#9ba2ff"></path><path d="M0 19L6.8 19.2C13.7 19.3 27.3 19.7 41.2 21.5C55 23.3 69 26.7 82.8 28.5C96.7 30.3 110.3 30.7 124 28.3C137.7 26 151.3 21 165.2 18.7C179 16.3 193 16.7 206.8 18C220.7 19.3 234.3 21.7 248 22.8C261.7 24 275.3 24 289 25.3C302.7 26.7 316.3 29.3 330.2 29.5C344 29.7 358 27.3 371.8 25.2C385.7 23 399.3 21 413 22.5C426.7 24 440.3 29 454.2 30.3C468 31.7 482 29.3 495.8 27C509.7 24.7 523.3 22.3 537 20.3C550.7 18.3 564.3 16.7 578.2 15.8C592 15 606 15 619.8 15.7C633.7 16.3 647.3 17.7 661 19.7C674.7 21.7 688.3 24.3 702 24.7C715.7 25 729.3 23 743.2 22.2C757 21.3 771 21.7 784.8 22.5C798.7 23.3 812.3 24.7 826 26.3C839.7 28 853.3 30 867.2 27.8C881 25.7 895 19.3 908.8 19.7C922.7 20 936.3 27 943.2 30.5L950 34L950 0L943.2 0C936.3 0 922.7 0 908.8 0C895 0 881 0 867.2 0C853.3 0 839.7 0 826 0C812.3 0 798.7 0 784.8 0C771 0 757 0 743.2 0C729.3 0 715.7 0 702 0C688.3 0 674.7 0 661 0C647.3 0 633.7 0 619.8 0C606 0 592 0 578.2 0C564.3 0 550.7 0 537 0C523.3 0 509.7 0 495.8 0C482 0 468 0 454.2 0C440.3 0 426.7 0 413 0C399.3 0 385.7 0 371.8 0C358 0 344 0 330.2 0C316.3 0 302.7 0 289 0C275.3 0 261.7 0 248 0C234.3 0 220.7 0 206.8 0C193 0 179 0 165.2 0C151.3 0 137.7 0 124 0C110.3 0 96.7 0 82.8 0C69 0 55 0 41.2 0C27.3 0 13.7 0 6.8 0L0 0Z" fill="#abafff"></path><path d="M0 13L6.8 14.7C13.7 16.3 27.3 19.7 41.2 21.8C55 24 69 25 82.8 25.3C96.7 25.7 110.3 25.3 124 24.8C137.7 24.3 151.3 23.7 165.2 24C179 24.3 193 25.7 206.8 25.8C220.7 26 234.3 25 248 24.8C261.7 24.7 275.3 25.3 289 25.3C302.7 25.3 316.3 24.7 330.2 23.3C344 22 358 20 371.8 18.5C385.7 17 399.3 16 413 15.7C426.7 15.3 440.3 15.7 454.2 15.2C468 14.7 482 13.3 495.8 13C509.7 12.7 523.3 13.3 537 15.8C550.7 18.3 564.3 22.7 578.2 22.3C592 22 606 17 619.8 15.2C633.7 13.3 647.3 14.7 661 14.5C674.7 14.3 688.3 12.7 702 13.8C715.7 15 729.3 19 743.2 21.2C757 23.3 771 23.7 784.8 22C798.7 20.3 812.3 16.7 826 16.7C839.7 16.7 853.3 20.3 867.2 22.5C881 24.7 895 25.3 908.8 26C922.7 26.7 936.3 27.3 943.2 27.7L950 28L950 0L943.2 0C936.3 0 922.7 0 908.8 0C895 0 881 0 867.2 0C853.3 0 839.7 0 826 0C812.3 0 798.7 0 784.8 0C771 0 757 0 743.2 0C729.3 0 715.7 0 702 0C688.3 0 674.7 0 661 0C647.3 0 633.7 0 619.8 0C606 0 592 0 578.2 0C564.3 0 550.7 0 537 0C523.3 0 509.7 0 495.8 0C482 0 468 0 454.2 0C440.3 0 426.7 0 413 0C399.3 0 385.7 0 371.8 0C358 0 344 0 330.2 0C316.3 0 302.7 0 289 0C275.3 0 261.7 0 248 0C234.3 0 220.7 0 206.8 0C193 0 179 0 165.2 0C151.3 0 137.7 0 124 0C110.3 0 96.7 0 82.8 0C69 0 55 0 41.2 0C27.3 0 13.7 0 6.8 0L0 0Z" fill="#babcff"></path><path d="M0 7L6.8 6.7C13.7 6.3 27.3 5.7 41.2 6.2C55 6.7 69 8.3 82.8 11C96.7 13.7 110.3 17.3 124 16.5C137.7 15.7 151.3 10.3 165.2 8.2C179 6 193 7 206.8 7.2C220.7 7.3 234.3 6.7 248 6.3C261.7 6 275.3 6 289 7.2C302.7 8.3 316.3 10.7 330.2 12C344 13.3 358 13.7 371.8 13.8C385.7 14 399.3 14 413 12.7C426.7 11.3 440.3 8.7 454.2 8C468 7.3 482 8.7 495.8 9.7C509.7 10.7 523.3 11.3 537 12.3C550.7 13.3 564.3 14.7 578.2 13.7C592 12.7 606 9.3 619.8 9.3C633.7 9.3 647.3 12.7 661 12.3C674.7 12 688.3 8 702 8.5C715.7 9 729.3 14 743.2 14.2C757 14.3 771 9.7 784.8 7.8C798.7 6 812.3 7 826 8.8C839.7 10.7 853.3 13.3 867.2 13.3C881 13.3 895 10.7 908.8 9.2C922.7 7.7 936.3 7.3 943.2 7.2L950 7L950 0L943.2 0C936.3 0 922.7 0 908.8 0C895 0 881 0 867.2 0C853.3 0 839.7 0 826 0C812.3 0 798.7 0 784.8 0C771 0 757 0 743.2 0C729.3 0 715.7 0 702 0C688.3 0 674.7 0 661 0C647.3 0 633.7 0 619.8 0C606 0 592 0 578.2 0C564.3 0 550.7 0 537 0C523.3 0 509.7 0 495.8 0C482 0 468 0 454.2 0C440.3 0 426.7 0 413 0C399.3 0 385.7 0 371.8 0C358 0 344 0 330.2 0C316.3 0 302.7 0 289 0C275.3 0 261.7 0 248 0C234.3 0 220.7 0 206.8 0C193 0 179 0 165.2 0C151.3 0 137.7 0 124 0C110.3 0 96.7 0 82.8 0C69 0 55 0 41.2 0C27.3 0 13.7 0 6.8 0L0 0Z" fill="#c9c9ff"></path><path d="M0 0L6.8 1.2C13.7 2.3 27.3 4.7 41.2 6.3C55 8 69 9 82.8 8.2C96.7 7.3 110.3 4.7 124 3C137.7 1.3 151.3 0.7 165.2 0.3C179 0 193 0 206.8 0.5C220.7 1 234.3 2 248 2C261.7 2 275.3 1 289 1.2C302.7 1.3 316.3 2.7 330.2 4C344 5.3 358 6.7 371.8 6C385.7 5.3 399.3 2.7 413 1.7C426.7 0.7 440.3 1.3 454.2 3.5C468 5.7 482 9.3 495.8 9C509.7 8.7 523.3 4.3 537 2.8C550.7 1.3 564.3 2.7 578.2 3C592 3.3 606 2.7 619.8 3.8C633.7 5 647.3 8 661 9.8C674.7 11.7 688.3 12.3 702 11.3C715.7 10.3 729.3 7.7 743.2 7.2C757 6.7 771 8.3 784.8 9.3C798.7 10.3 812.3 10.7 826 11C839.7 11.3 853.3 11.7 867.2 11C881 10.3 895 8.7 908.8 8.2C922.7 7.7 936.3 8.3 943.2 8.7L950 9L950 0L943.2 0C936.3 0 922.7 0 908.8 0C895 0 881 0 867.2 0C853.3 0 839.7 0 826 0C812.3 0 798.7 0 784.8 0C771 0 757 0 743.2 0C729.3 0 715.7 0 702 0C688.3 0 674.7 0 661 0C647.3 0 633.7 0 619.8 0C606 0 592 0 578.2 0C564.3 0 550.7 0 537 0C523.3 0 509.7 0 495.8 0C482 0 468 0 454.2 0C440.3 0 426.7 0 413 0C399.3 0 385.7 0 371.8 0C358 0 344 0 330.2 0C316.3 0 302.7 0 289 0C275.3 0 261.7 0 248 0C234.3 0 220.7 0 206.8 0C193 0 179 0 165.2 0C151.3 0 137.7 0 124 0C110.3 0 96.7 0 82.8 0C69 0 55 0 41.2 0C27.3 0 13.7 0 6.8 0L0 0Z" fill="#d7d6ff"></path></svg>