<svg id="visual" viewBox="0 0 960 300" width="960" height="300" xmlns="http://www.w3.org/2000/svg" xmlns:xlink="http://www.w3.org/1999/xlink" version="1.1"><rect x="0" y="0" width="960" height="300" fill="#001220"></rect><path d="M0 229L22.8 223.3C45.7 217.7 91.3 206.3 137 201.7C182.7 197 228.3 199 274 205.5C319.7 212 365.3 223 411.2 225.5C457 228 503 222 548.8 208.5C594.7 195 640.3 174 686 164C731.7 154 777.3 155 823 166.2C868.7 177.3 914.3 198.7 937.2 209.3L960 220L960 0L937.2 0C914.3 0 868.7 0 823 0C777.3 0 731.7 0 686 0C640.3 0 594.7 0 548.8 0C503 0 457 0 411.2 0C365.3 0 319.7 0 274 0C228.3 0 182.7 0 137 0C91.3 0 45.7 0 22.8 0L0 0Z" fill="#fa7268"></path><path d="M0 193L22.8 193.3C45.7 193.7 91.3 194.3 137 187C182.7 179.7 228.3 164.3 274 165.8C319.7 167.3 365.3 185.7 411.2 193.3C457 201 503 198 548.8 191.2C594.7 184.3 640.3 173.7 686 164.2C731.7 154.7 777.3 146.3 823 142.2C868.7 138 914.3 138 937.2 138L960 138L960 0L937.2 0C914.3 0 868.7 0 823 0C777.3 0 731.7 0 686 0C640.3 0 594.7 0 548.8 0C503 0 457 0 411.2 0C365.3 0 319.7 0 274 0C228.3 0 182.7 0 137 0C91.3 0 45.7 0 22.8 0L0 0Z" fill="#ef5f67"></path><path d="M0 113L22.8 115.8C45.7 118.7 91.3 124.3 137 127.7C182.7 131 228.3 132 274 131.2C319.7 130.3 365.3 127.7 411.2 127.3C457 127 503 129 548.8 133.3C594.7 137.7 640.3 144.3 686 144.7C731.7 145 777.3 139 823 136.3C868.7 133.7 914.3 134.3 937.2 134.7L960 135L960 0L937.2 0C914.3 0 868.7 0 823 0C777.3 0 731.7 0 686 0C640.3 0 594.7 0 548.8 0C503 0 457 0 411.2 0C365.3 0 319.7 0 274 0C228.3 0 182.7 0 137 0C91.3 0 45.7 0 22.8 0L0 0Z" fill="#e34c67"></path><path d="M0 58L22.8 65.2C45.7 72.3 91.3 86.7 137 94.7C182.7 102.7 228.3 104.3 274 106.5C319.7 108.7 365.3 111.3 411.2 112.8C457 114.3 503 114.7 548.8 109.5C594.7 104.3 640.3 93.7 686 85C731.7 76.3 777.3 69.7 823 68.7C868.7 67.7 914.3 72.3 937.2 74.7L960 77L960 0L937.2 0C914.3 0 868.7 0 823 0C777.3 0 731.7 0 686 0C640.3 0 594.7 0 548.8 0C503 0 457 0 411.2 0C365.3 0 319.7 0 274 0C228.3 0 182.7 0 137 0C91.3 0 45.7 0 22.8 0L0 0Z" fill="#d53867"></path><path d="M0 55L22.8 56.8C45.7 58.7 91.3 62.3 137 64C182.7 65.7 228.3 65.3 274 65.7C319.7 66 365.3 67 411.2 60.7C457 54.3 503 40.7 548.8 38.8C594.7 37 640.3 47 686 46.7C731.7 46.3 777.3 35.7 823 31C868.7 26.3 914.3 27.7 937.2 28.3L960 29L960 0L937.2 0C914.3 0 868.7 0 823 0C777.3 0 731.7 0 686 0C640.3 0 594.7 0 548.8 0C503 0 457 0 411.2 0C365.3 0 319.7 0 274 0C228.3 0 182.7 0 137 0C91.3 0 45.7 0 22.8 0L0 0Z" fill="#c62368"></path></svg>