<svg id="visual" viewBox="0 0 960 300" width="960" height="300" xmlns="http://www.w3.org/2000/svg" xmlns:xlink="http://www.w3.org/1999/xlink" version="1.1"><rect x="0" y="0" width="960" height="300" fill="#001220"></rect><path d="M0 139L22.8 143.3C45.7 147.7 91.3 156.3 137 151.2C182.7 146 228.3 127 274 114.2C319.7 101.3 365.3 94.7 411.2 99.8C457 105 503 122 548.8 133.3C594.7 144.7 640.3 150.3 686 145.5C731.7 140.7 777.3 125.3 823 110.7C868.7 96 914.3 82 937.2 75L960 68L960 301L937.2 301C914.3 301 868.7 301 823 301C777.3 301 731.7 301 686 301C640.3 301 594.7 301 548.8 301C503 301 457 301 411.2 301C365.3 301 319.7 301 274 301C228.3 301 182.7 301 137 301C91.3 301 45.7 301 22.8 301L0 301Z" fill="#fa7268"></path><path d="M0 115L22.8 115C45.7 115 91.3 115 137 115.2C182.7 115.3 228.3 115.7 274 118.5C319.7 121.3 365.3 126.7 411.2 139.2C457 151.7 503 171.3 548.8 171C594.7 170.7 640.3 150.3 686 146.2C731.7 142 777.3 154 823 154.8C868.7 155.7 914.3 145.3 937.2 140.2L960 135L960 301L937.2 301C914.3 301 868.7 301 823 301C777.3 301 731.7 301 686 301C640.3 301 594.7 301 548.8 301C503 301 457 301 411.2 301C365.3 301 319.7 301 274 301C228.3 301 182.7 301 137 301C91.3 301 45.7 301 22.8 301L0 301Z" fill="#ef5f67"></path><path d="M0 186L22.8 179.2C45.7 172.3 91.3 158.7 137 151.8C182.7 145 228.3 145 274 154.3C319.7 163.7 365.3 182.3 411.2 193.5C457 204.7 503 208.3 548.8 206.8C594.7 205.3 640.3 198.7 686 192.8C731.7 187 777.3 182 823 183.3C868.7 184.7 914.3 192.3 937.2 196.2L960 200L960 301L937.2 301C914.3 301 868.7 301 823 301C777.3 301 731.7 301 686 301C640.3 301 594.7 301 548.8 301C503 301 457 301 411.2 301C365.3 301 319.7 301 274 301C228.3 301 182.7 301 137 301C91.3 301 45.7 301 22.8 301L0 301Z" fill="#e34c67"></path><path d="M0 233L22.8 231.3C45.7 229.7 91.3 226.3 137 227.7C182.7 229 228.3 235 274 230.3C319.7 225.7 365.3 210.3 411.2 203.2C457 196 503 197 548.8 205.5C594.7 214 640.3 230 686 234.2C731.7 238.3 777.3 230.7 823 224C868.7 217.3 914.3 211.7 937.2 208.8L960 206L960 301L937.2 301C914.3 301 868.7 301 823 301C777.3 301 731.7 301 686 301C640.3 301 594.7 301 548.8 301C503 301 457 301 411.2 301C365.3 301 319.7 301 274 301C228.3 301 182.7 301 137 301C91.3 301 45.7 301 22.8 301L0 301Z" fill="#d53867"></path><path d="M0 266L22.8 266.3C45.7 266.7 91.3 267.3 137 262.7C182.7 258 228.3 248 274 246.7C319.7 245.3 365.3 252.7 411.2 251.7C457 250.7 503 241.3 548.8 236.3C594.7 231.3 640.3 230.7 686 234.8C731.7 239 777.3 248 823 251.3C868.7 254.7 914.3 252.3 937.2 251.2L960 250L960 301L937.2 301C914.3 301 868.7 301 823 301C777.3 301 731.7 301 686 301C640.3 301 594.7 301 548.8 301C503 301 457 301 411.2 301C365.3 301 319.7 301 274 301C228.3 301 182.7 301 137 301C91.3 301 45.7 301 22.8 301L0 301Z" fill="#c62368"></path></svg>