<svg id="visual" viewBox="0 0 950 300" width="950" height="300" xmlns="http://www.w3.org/2000/svg" xmlns:xlink="http://www.w3.org/1999/xlink" version="1.1"><rect x="0" y="0" width="950" height="300" fill="#D7D6FF"></rect><path d="M0 96L22.7 96.7C45.3 97.3 90.7 98.7 135.8 103C181 107.3 226 114.7 271.2 113C316.3 111.3 361.7 100.7 407 93.8C452.3 87 497.7 84 543 89.5C588.3 95 633.7 109 678.8 113.8C724 118.7 769 114.3 814.2 111.7C859.3 109 904.7 108 927.3 107.5L950 107L950 0L927.3 0C904.7 0 859.3 0 814.2 0C769 0 724 0 678.8 0C633.7 0 588.3 0 543 0C497.7 0 452.3 0 407 0C361.7 0 316.3 0 271.2 0C226 0 181 0 135.8 0C90.7 0 45.3 0 22.7 0L0 0Z" fill="#7789ff"></path><path d="M0 67L22.7 69.8C45.3 72.7 90.7 78.3 135.8 77.2C181 76 226 68 271.2 69.8C316.3 71.7 361.7 83.3 407 89.3C452.3 95.3 497.7 95.7 543 92.5C588.3 89.3 633.7 82.7 678.8 80.3C724 78 769 80 814.2 77.5C859.3 75 904.7 68 927.3 64.5L950 61L950 0L927.3 0C904.7 0 859.3 0 814.2 0C769 0 724 0 678.8 0C633.7 0 588.3 0 543 0C497.7 0 452.3 0 407 0C361.7 0 316.3 0 271.2 0C226 0 181 0 135.8 0C90.7 0 45.3 0 22.7 0L0 0Z" fill="#5d7bd4"></path><path d="M0 69L22.7 70.5C45.3 72 90.7 75 135.8 74.2C181 73.3 226 68.7 271.2 67.7C316.3 66.7 361.7 69.3 407 71.8C452.3 74.3 497.7 76.7 543 74.8C588.3 73 633.7 67 678.8 64.8C724 62.7 769 64.3 814.2 65C859.3 65.7 904.7 65.3 927.3 65.2L950 65L950 0L927.3 0C904.7 0 859.3 0 814.2 0C769 0 724 0 678.8 0C633.7 0 588.3 0 543 0C497.7 0 452.3 0 407 0C361.7 0 316.3 0 271.2 0C226 0 181 0 135.8 0C90.7 0 45.3 0 22.7 0L0 0Z" fill="#4d6ba9"></path><path d="M0 43L22.7 45.2C45.3 47.3 90.7 51.7 135.8 49.2C181 46.7 226 37.3 271.2 36.5C316.3 35.7 361.7 43.3 407 44C452.3 44.7 497.7 38.3 543 35.2C588.3 32 633.7 32 678.8 32.2C724 32.3 769 32.7 814.2 36.8C859.3 41 904.7 49 927.3 53L950 57L950 0L927.3 0C904.7 0 859.3 0 814.2 0C769 0 724 0 678.8 0C633.7 0 588.3 0 543 0C497.7 0 452.3 0 407 0C361.7 0 316.3 0 271.2 0C226 0 181 0 135.8 0C90.7 0 45.3 0 22.7 0L0 0Z" fill="#455a7e"></path><path d="M0 19L22.7 21C45.3 23 90.7 27 135.8 29.7C181 32.3 226 33.7 271.2 32C316.3 30.3 361.7 25.7 407 25.3C452.3 25 497.7 29 543 30.3C588.3 31.7 633.7 30.3 678.8 30.5C724 30.7 769 32.3 814.2 31.2C859.3 30 904.7 26 927.3 24L950 22L950 0L927.3 0C904.7 0 859.3 0 814.2 0C769 0 724 0 678.8 0C633.7 0 588.3 0 543 0C497.7 0 452.3 0 407 0C361.7 0 316.3 0 271.2 0C226 0 181 0 135.8 0C90.7 0 45.3 0 22.7 0L0 0Z" fill="#404855"></path></svg>