<svg id="visual" viewBox="0 0 950 300" width="950" height="300" xmlns="http://www.w3.org/2000/svg" xmlns:xlink="http://www.w3.org/1999/xlink" version="1.1"><rect x="0" y="0" width="950" height="300" fill="#ffffff"></rect><path d="M0 54L9.3 53.8C18.7 53.7 37.3 53.3 56 52C74.7 50.7 93.3 48.3 112 53.7C130.7 59 149.3 72 168 86.5C186.7 101 205.3 117 223.8 123.3C242.3 129.7 260.7 126.3 279.2 116.3C297.7 106.3 316.3 89.7 335 74.8C353.7 60 372.3 47 391 64.5C409.7 82 428.3 130 447 145C465.7 160 484.3 142 503 130.2C521.7 118.3 540.3 112.7 559 103.5C577.7 94.3 596.3 81.7 615 77.2C633.7 72.7 652.3 76.3 670.8 86.8C689.3 97.3 707.7 114.7 726.2 130.3C744.7 146 763.3 160 782 169.8C800.7 179.7 819.3 185.3 838 182.7C856.7 180 875.3 169 894 168.7C912.7 168.3 931.3 178.7 940.7 183.8L950 189L950 301L940.7 301C931.3 301 912.7 301 894 301C875.3 301 856.7 301 838 301C819.3 301 800.7 301 782 301C763.3 301 744.7 301 726.2 301C707.7 301 689.3 301 670.8 301C652.3 301 633.7 301 615 301C596.3 301 577.7 301 559 301C540.3 301 521.7 301 503 301C484.3 301 465.7 301 447 301C428.3 301 409.7 301 391 301C372.3 301 353.7 301 335 301C316.3 301 297.7 301 279.2 301C260.7 301 242.3 301 223.8 301C205.3 301 186.7 301 168 301C149.3 301 130.7 301 112 301C93.3 301 74.7 301 56 301C37.3 301 18.7 301 9.3 301L0 301Z" fill="#404855"></path><path d="M0 94L9.3 93.8C18.7 93.7 37.3 93.3 56 97.7C74.7 102 93.3 111 112 109.8C130.7 108.7 149.3 97.3 168 102.5C186.7 107.7 205.3 129.3 223.8 138.7C242.3 148 260.7 145 279.2 136.3C297.7 127.7 316.3 113.3 335 117C353.7 120.7 372.3 142.3 391 149.8C409.7 157.3 428.3 150.7 447 156.2C465.7 161.7 484.3 179.3 503 176.8C521.7 174.3 540.3 151.7 559 151C577.7 150.3 596.3 171.7 615 167.8C633.7 164 652.3 135 670.8 130.5C689.3 126 707.7 146 726.2 141.7C744.7 137.3 763.3 108.7 782 108C800.7 107.3 819.3 134.7 838 137.8C856.7 141 875.3 120 894 120.5C912.7 121 931.3 143 940.7 154L950 165L950 301L940.7 301C931.3 301 912.7 301 894 301C875.3 301 856.7 301 838 301C819.3 301 800.7 301 782 301C763.3 301 744.7 301 726.2 301C707.7 301 689.3 301 670.8 301C652.3 301 633.7 301 615 301C596.3 301 577.7 301 559 301C540.3 301 521.7 301 503 301C484.3 301 465.7 301 447 301C428.3 301 409.7 301 391 301C372.3 301 353.7 301 335 301C316.3 301 297.7 301 279.2 301C260.7 301 242.3 301 223.8 301C205.3 301 186.7 301 168 301C149.3 301 130.7 301 112 301C93.3 301 74.7 301 56 301C37.3 301 18.7 301 9.3 301L0 301Z" fill="#505869"></path><path d="M0 193L9.3 190.3C18.7 187.7 37.3 182.3 56 166.5C74.7 150.7 93.3 124.3 112 116C130.7 107.7 149.3 117.3 168 131.2C186.7 145 205.3 163 223.8 174.2C242.3 185.3 260.7 189.7 279.2 191.8C297.7 194 316.3 194 335 189.8C353.7 185.7 372.3 177.3 391 165.3C409.7 153.3 428.3 137.7 447 124C465.7 110.3 484.3 98.7 503 95.3C521.7 92 540.3 97 559 110C577.7 123 596.3 144 615 162.5C633.7 181 652.3 197 670.8 204.8C689.3 212.7 707.7 212.3 726.2 206.2C744.7 200 763.3 188 782 181C800.7 174 819.3 172 838 170.5C856.7 169 875.3 168 894 172.5C912.7 177 931.3 187 940.7 192L950 197L950 301L940.7 301C931.3 301 912.7 301 894 301C875.3 301 856.7 301 838 301C819.3 301 800.7 301 782 301C763.3 301 744.7 301 726.2 301C707.7 301 689.3 301 670.8 301C652.3 301 633.7 301 615 301C596.3 301 577.7 301 559 301C540.3 301 521.7 301 503 301C484.3 301 465.7 301 447 301C428.3 301 409.7 301 391 301C372.3 301 353.7 301 335 301C316.3 301 297.7 301 279.2 301C260.7 301 242.3 301 223.8 301C205.3 301 186.7 301 168 301C149.3 301 130.7 301 112 301C93.3 301 74.7 301 56 301C37.3 301 18.7 301 9.3 301L0 301Z" fill="#61697d"></path><path d="M0 202L9.3 187.8C18.7 173.7 37.3 145.3 56 143.2C74.7 141 93.3 165 112 184C130.7 203 149.3 217 168 208.2C186.7 199.3 205.3 167.7 223.8 155.8C242.3 144 260.7 152 279.2 148.3C297.7 144.7 316.3 129.3 335 130.2C353.7 131 372.3 148 391 162C409.7 176 428.3 187 447 192.3C465.7 197.7 484.3 197.3 503 192.2C521.7 187 540.3 177 559 175.2C577.7 173.3 596.3 179.7 615 180.2C633.7 180.7 652.3 175.3 670.8 171.8C689.3 168.3 707.7 166.7 726.2 166.2C744.7 165.7 763.3 166.3 782 166C800.7 165.7 819.3 164.3 838 155.3C856.7 146.3 875.3 129.7 894 125C912.7 120.3 931.3 127.7 940.7 131.3L950 135L950 301L940.7 301C931.3 301 912.7 301 894 301C875.3 301 856.7 301 838 301C819.3 301 800.7 301 782 301C763.3 301 744.7 301 726.2 301C707.7 301 689.3 301 670.8 301C652.3 301 633.7 301 615 301C596.3 301 577.7 301 559 301C540.3 301 521.7 301 503 301C484.3 301 465.7 301 447 301C428.3 301 409.7 301 391 301C372.3 301 353.7 301 335 301C316.3 301 297.7 301 279.2 301C260.7 301 242.3 301 223.8 301C205.3 301 186.7 301 168 301C149.3 301 130.7 301 112 301C93.3 301 74.7 301 56 301C37.3 301 18.7 301 9.3 301L0 301Z" fill="#727a92"></path><path d="M0 180L9.3 183.7C18.7 187.3 37.3 194.7 56 190.7C74.7 186.7 93.3 171.3 112 177.5C130.7 183.7 149.3 211.3 168 216C186.7 220.7 205.3 202.3 223.8 195.5C242.3 188.7 260.7 193.3 279.2 191.5C297.7 189.7 316.3 181.3 335 184.3C353.7 187.3 372.3 201.7 391 205.5C409.7 209.3 428.3 202.7 447 194.2C465.7 185.7 484.3 175.3 503 181.5C521.7 187.7 540.3 210.3 559 220.5C577.7 230.7 596.3 228.3 615 228.3C633.7 228.3 652.3 230.7 670.8 221C689.3 211.3 707.7 189.7 726.2 184C744.7 178.3 763.3 188.7 782 193.8C800.7 199 819.3 199 838 203.3C856.7 207.7 875.3 216.3 894 218.2C912.7 220 931.3 215 940.7 212.5L950 210L950 301L940.7 301C931.3 301 912.7 301 894 301C875.3 301 856.7 301 838 301C819.3 301 800.7 301 782 301C763.3 301 744.7 301 726.2 301C707.7 301 689.3 301 670.8 301C652.3 301 633.7 301 615 301C596.3 301 577.7 301 559 301C540.3 301 521.7 301 503 301C484.3 301 465.7 301 447 301C428.3 301 409.7 301 391 301C372.3 301 353.7 301 335 301C316.3 301 297.7 301 279.2 301C260.7 301 242.3 301 223.8 301C205.3 301 186.7 301 168 301C149.3 301 130.7 301 112 301C93.3 301 74.7 301 56 301C37.3 301 18.7 301 9.3 301L0 301Z" fill="#858ca7"></path><path d="M0 226L9.3 225C18.7 224 37.3 222 56 213.8C74.7 205.7 93.3 191.3 112 186.2C130.7 181 149.3 185 168 196C186.7 207 205.3 225 223.8 233C242.3 241 260.7 239 279.2 233C297.7 227 316.3 217 335 218.3C353.7 219.7 372.3 232.3 391 240C409.7 247.7 428.3 250.3 447 242.3C465.7 234.3 484.3 215.7 503 208.3C521.7 201 540.3 205 559 207C577.7 209 596.3 209 615 208.2C633.7 207.3 652.3 205.7 670.8 209.7C689.3 213.7 707.7 223.3 726.2 217.5C744.7 211.7 763.3 190.3 782 185.8C800.7 181.3 819.3 193.7 838 207.5C856.7 221.3 875.3 236.7 894 237.3C912.7 238 931.3 224 940.7 217L950 210L950 301L940.7 301C931.3 301 912.7 301 894 301C875.3 301 856.7 301 838 301C819.3 301 800.7 301 782 301C763.3 301 744.7 301 726.2 301C707.7 301 689.3 301 670.8 301C652.3 301 633.7 301 615 301C596.3 301 577.7 301 559 301C540.3 301 521.7 301 503 301C484.3 301 465.7 301 447 301C428.3 301 409.7 301 391 301C372.3 301 353.7 301 335 301C316.3 301 297.7 301 279.2 301C260.7 301 242.3 301 223.8 301C205.3 301 186.7 301 168 301C149.3 301 130.7 301 112 301C93.3 301 74.7 301 56 301C37.3 301 18.7 301 9.3 301L0 301Z" fill="#989ebd"></path><path d="M0 238L9.3 241.3C18.7 244.7 37.3 251.3 56 253.3C74.7 255.3 93.3 252.7 112 243C130.7 233.3 149.3 216.7 168 218.7C186.7 220.7 205.3 241.3 223.8 242.7C242.3 244 260.7 226 279.2 224.8C297.7 223.7 316.3 239.3 335 238.2C353.7 237 372.3 219 391 221.2C409.7 223.3 428.3 245.7 447 255.8C465.7 266 484.3 264 503 263.5C521.7 263 540.3 264 559 265.3C577.7 266.7 596.3 268.3 615 263.7C633.7 259 652.3 248 670.8 235.2C689.3 222.3 707.7 207.7 726.2 210.2C744.7 212.7 763.3 232.3 782 239C800.7 245.7 819.3 239.3 838 237.2C856.7 235 875.3 237 894 233.8C912.7 230.7 931.3 222.3 940.7 218.2L950 214L950 301L940.7 301C931.3 301 912.7 301 894 301C875.3 301 856.7 301 838 301C819.3 301 800.7 301 782 301C763.3 301 744.7 301 726.2 301C707.7 301 689.3 301 670.8 301C652.3 301 633.7 301 615 301C596.3 301 577.7 301 559 301C540.3 301 521.7 301 503 301C484.3 301 465.7 301 447 301C428.3 301 409.7 301 391 301C372.3 301 353.7 301 335 301C316.3 301 297.7 301 279.2 301C260.7 301 242.3 301 223.8 301C205.3 301 186.7 301 168 301C149.3 301 130.7 301 112 301C93.3 301 74.7 301 56 301C37.3 301 18.7 301 9.3 301L0 301Z" fill="#acb0d2"></path><path d="M0 232L9.3 237.5C18.7 243 37.3 254 56 262C74.7 270 93.3 275 112 275.5C130.7 276 149.3 272 168 262.3C186.7 252.7 205.3 237.3 223.8 229C242.3 220.7 260.7 219.3 279.2 225.5C297.7 231.7 316.3 245.3 335 246.5C353.7 247.7 372.3 236.3 391 235.5C409.7 234.7 428.3 244.3 447 247C465.7 249.7 484.3 245.3 503 240.3C521.7 235.3 540.3 229.7 559 226.8C577.7 224 596.3 224 615 223.8C633.7 223.7 652.3 223.3 670.8 224C689.3 224.7 707.7 226.3 726.2 230.5C744.7 234.7 763.3 241.3 782 247.5C800.7 253.7 819.3 259.3 838 254.8C856.7 250.3 875.3 235.7 894 231.5C912.7 227.3 931.3 233.7 940.7 236.8L950 240L950 301L940.7 301C931.3 301 912.7 301 894 301C875.3 301 856.7 301 838 301C819.3 301 800.7 301 782 301C763.3 301 744.7 301 726.2 301C707.7 301 689.3 301 670.8 301C652.3 301 633.7 301 615 301C596.3 301 577.7 301 559 301C540.3 301 521.7 301 503 301C484.3 301 465.7 301 447 301C428.3 301 409.7 301 391 301C372.3 301 353.7 301 335 301C316.3 301 297.7 301 279.2 301C260.7 301 242.3 301 223.8 301C205.3 301 186.7 301 168 301C149.3 301 130.7 301 112 301C93.3 301 74.7 301 56 301C37.3 301 18.7 301 9.3 301L0 301Z" fill="#c1c3e9"></path><path d="M0 273L9.3 275.5C18.7 278 37.3 283 56 285.2C74.7 287.3 93.3 286.7 112 279.5C130.7 272.3 149.3 258.7 168 252.2C186.7 245.7 205.3 246.3 223.8 248.7C242.3 251 260.7 255 279.2 256.8C297.7 258.7 316.3 258.3 335 263.5C353.7 268.7 372.3 279.3 391 281.7C409.7 284 428.3 278 447 278C465.7 278 484.3 284 503 287.3C521.7 290.7 540.3 291.3 559 286.2C577.7 281 596.3 270 615 266.5C633.7 263 652.3 267 670.8 265.8C689.3 264.7 707.7 258.3 726.2 260.7C744.7 263 763.3 274 782 280C800.7 286 819.3 287 838 288.8C856.7 290.7 875.3 293.3 894 286.3C912.7 279.3 931.3 262.7 940.7 254.3L950 246L950 301L940.7 301C931.3 301 912.7 301 894 301C875.3 301 856.7 301 838 301C819.3 301 800.7 301 782 301C763.3 301 744.7 301 726.2 301C707.7 301 689.3 301 670.8 301C652.3 301 633.7 301 615 301C596.3 301 577.7 301 559 301C540.3 301 521.7 301 503 301C484.3 301 465.7 301 447 301C428.3 301 409.7 301 391 301C372.3 301 353.7 301 335 301C316.3 301 297.7 301 279.2 301C260.7 301 242.3 301 223.8 301C205.3 301 186.7 301 168 301C149.3 301 130.7 301 112 301C93.3 301 74.7 301 56 301C37.3 301 18.7 301 9.3 301L0 301Z" fill="#d7d6ff"></path></svg>