<svg id="visual" viewBox="0 0 950 300" width="950" height="300" xmlns="http://www.w3.org/2000/svg" xmlns:xlink="http://www.w3.org/1999/xlink" version="1.1"><rect x="0" y="0" width="950" height="300" fill="#D7D6FF"></rect><path d="M0 229L17.7 236.8C35.3 244.7 70.7 260.3 105.8 271.7C141 283 176 290 211.2 276.5C246.3 263 281.7 229 316.8 220C352 211 387 227 422.2 215.2C457.3 203.3 492.7 163.7 527.8 169.7C563 175.7 598 227.3 633.2 255.8C668.3 284.3 703.7 289.7 738.8 286.8C774 284 809 273 844.2 259C879.3 245 914.7 228 932.3 219.5L950 211L950 0L932.3 0C914.7 0 879.3 0 844.2 0C809 0 774 0 738.8 0C703.7 0 668.3 0 633.2 0C598 0 563 0 527.8 0C492.7 0 457.3 0 422.2 0C387 0 352 0 316.8 0C281.7 0 246.3 0 211.2 0C176 0 141 0 105.8 0C70.7 0 35.3 0 17.7 0L0 0Z" fill="#404855"></path><path d="M0 135L17.7 153.5C35.3 172 70.7 209 105.8 210C141 211 176 176 211.2 176C246.3 176 281.7 211 316.8 218.8C352 226.7 387 207.3 422.2 185.2C457.3 163 492.7 138 527.8 150.5C563 163 598 213 633.2 238C668.3 263 703.7 263 738.8 249.8C774 236.7 809 210.3 844.2 209C879.3 207.7 914.7 231.3 932.3 243.2L950 255L950 0L932.3 0C914.7 0 879.3 0 844.2 0C809 0 774 0 738.8 0C703.7 0 668.3 0 633.2 0C598 0 563 0 527.8 0C492.7 0 457.3 0 422.2 0C387 0 352 0 316.8 0C281.7 0 246.3 0 211.2 0C176 0 141 0 105.8 0C70.7 0 35.3 0 17.7 0L0 0Z" fill="#525b6c"></path><path d="M0 167L17.7 173C35.3 179 70.7 191 105.8 182.8C141 174.7 176 146.3 211.2 134.3C246.3 122.3 281.7 126.7 316.8 136.5C352 146.3 387 161.7 422.2 161.2C457.3 160.7 492.7 144.3 527.8 148.8C563 153.3 598 178.7 633.2 190.2C668.3 201.7 703.7 199.3 738.8 188.7C774 178 809 159 844.2 147.3C879.3 135.7 914.7 131.3 932.3 129.2L950 127L950 0L932.3 0C914.7 0 879.3 0 844.2 0C809 0 774 0 738.8 0C703.7 0 668.3 0 633.2 0C598 0 563 0 527.8 0C492.7 0 457.3 0 422.2 0C387 0 352 0 316.8 0C281.7 0 246.3 0 211.2 0C176 0 141 0 105.8 0C70.7 0 35.3 0 17.7 0L0 0Z" fill="#666e83"></path><path d="M0 158L17.7 149.7C35.3 141.3 70.7 124.7 105.8 121.7C141 118.7 176 129.3 211.2 134.5C246.3 139.7 281.7 139.3 316.8 141.3C352 143.3 387 147.7 422.2 151C457.3 154.3 492.7 156.7 527.8 143C563 129.3 598 99.7 633.2 96C668.3 92.3 703.7 114.7 738.8 126C774 137.3 809 137.7 844.2 137.2C879.3 136.7 914.7 135.3 932.3 134.7L950 134L950 0L932.3 0C914.7 0 879.3 0 844.2 0C809 0 774 0 738.8 0C703.7 0 668.3 0 633.2 0C598 0 563 0 527.8 0C492.7 0 457.3 0 422.2 0C387 0 352 0 316.8 0C281.7 0 246.3 0 211.2 0C176 0 141 0 105.8 0C70.7 0 35.3 0 17.7 0L0 0Z" fill="#7a829b"></path><path d="M0 103L17.7 106.7C35.3 110.3 70.7 117.7 105.8 125.5C141 133.3 176 141.7 211.2 141.7C246.3 141.7 281.7 133.3 316.8 129.8C352 126.3 387 127.7 422.2 120.5C457.3 113.3 492.7 97.7 527.8 86.3C563 75 598 68 633.2 81.3C668.3 94.7 703.7 128.3 738.8 135C774 141.7 809 121.3 844.2 116C879.3 110.7 914.7 120.3 932.3 125.2L950 130L950 0L932.3 0C914.7 0 879.3 0 844.2 0C809 0 774 0 738.8 0C703.7 0 668.3 0 633.2 0C598 0 563 0 527.8 0C492.7 0 457.3 0 422.2 0C387 0 352 0 316.8 0C281.7 0 246.3 0 211.2 0C176 0 141 0 105.8 0C70.7 0 35.3 0 17.7 0L0 0Z" fill="#9096b3"></path><path d="M0 44L17.7 57C35.3 70 70.7 96 105.8 98C141 100 176 78 211.2 76C246.3 74 281.7 92 316.8 88.5C352 85 387 60 422.2 50.8C457.3 41.7 492.7 48.3 527.8 61.2C563 74 598 93 633.2 99.3C668.3 105.7 703.7 99.3 738.8 89.7C774 80 809 67 844.2 61.5C879.3 56 914.7 58 932.3 59L950 60L950 0L932.3 0C914.7 0 879.3 0 844.2 0C809 0 774 0 738.8 0C703.7 0 668.3 0 633.2 0C598 0 563 0 527.8 0C492.7 0 457.3 0 422.2 0C387 0 352 0 316.8 0C281.7 0 246.3 0 211.2 0C176 0 141 0 105.8 0C70.7 0 35.3 0 17.7 0L0 0Z" fill="#a7abcc"></path><path d="M0 36L17.7 42.5C35.3 49 70.7 62 105.8 63.5C141 65 176 55 211.2 46.5C246.3 38 281.7 31 316.8 32C352 33 387 42 422.2 41.2C457.3 40.3 492.7 29.7 527.8 35.5C563 41.3 598 63.7 633.2 65.5C668.3 67.3 703.7 48.7 738.8 43.3C774 38 809 46 844.2 54.5C879.3 63 914.7 72 932.3 76.5L950 81L950 0L932.3 0C914.7 0 879.3 0 844.2 0C809 0 774 0 738.8 0C703.7 0 668.3 0 633.2 0C598 0 563 0 527.8 0C492.7 0 457.3 0 422.2 0C387 0 352 0 316.8 0C281.7 0 246.3 0 211.2 0C176 0 141 0 105.8 0C70.7 0 35.3 0 17.7 0L0 0Z" fill="#bec0e5"></path><path d="M0 50L17.7 47.2C35.3 44.3 70.7 38.7 105.8 33.5C141 28.3 176 23.7 211.2 23.2C246.3 22.7 281.7 26.3 316.8 33.5C352 40.7 387 51.3 422.2 47.3C457.3 43.3 492.7 24.7 527.8 20.8C563 17 598 28 633.2 29.5C668.3 31 703.7 23 738.8 23C774 23 809 31 844.2 37.3C879.3 43.7 914.7 48.3 932.3 50.7L950 53L950 0L932.3 0C914.7 0 879.3 0 844.2 0C809 0 774 0 738.8 0C703.7 0 668.3 0 633.2 0C598 0 563 0 527.8 0C492.7 0 457.3 0 422.2 0C387 0 352 0 316.8 0C281.7 0 246.3 0 211.2 0C176 0 141 0 105.8 0C70.7 0 35.3 0 17.7 0L0 0Z" fill="#d7d6ff"></path></svg>