<svg id="visual" viewBox="0 0 950 300" width="950" height="300" xmlns="http://www.w3.org/2000/svg" xmlns:xlink="http://www.w3.org/1999/xlink" version="1.1"><rect x="0" y="0" width="950" height="300" fill="#D7D6FF"></rect><path d="M0 137L17.7 141.7C35.3 146.3 70.7 155.7 105.8 162.5C141 169.3 176 173.7 211.2 165.7C246.3 157.7 281.7 137.3 316.8 131.8C352 126.3 387 135.7 422.2 128.5C457.3 121.3 492.7 97.7 527.8 101.3C563 105 598 136 633.2 153C668.3 170 703.7 173 738.8 171.3C774 169.7 809 163.3 844.2 155C879.3 146.7 914.7 136.3 932.3 131.2L950 126L950 0L932.3 0C914.7 0 879.3 0 844.2 0C809 0 774 0 738.8 0C703.7 0 668.3 0 633.2 0C598 0 563 0 527.8 0C492.7 0 457.3 0 422.2 0C387 0 352 0 316.8 0C281.7 0 246.3 0 211.2 0C176 0 141 0 105.8 0C70.7 0 35.3 0 17.7 0L0 0Z" fill="#7789ff"></path><path d="M0 80L17.7 91.2C35.3 102.3 70.7 124.7 105.8 125.3C141 126 176 105 211.2 105C246.3 105 281.7 126 316.8 130.7C352 135.3 387 123.7 422.2 110.5C457.3 97.3 492.7 82.7 527.8 90.2C563 97.7 598 127.3 633.2 142.2C668.3 157 703.7 157 738.8 149.2C774 141.3 809 125.7 844.2 124.8C879.3 124 914.7 138 932.3 145L950 152L950 0L932.3 0C914.7 0 879.3 0 844.2 0C809 0 774 0 738.8 0C703.7 0 668.3 0 633.2 0C598 0 563 0 527.8 0C492.7 0 457.3 0 422.2 0C387 0 352 0 316.8 0C281.7 0 246.3 0 211.2 0C176 0 141 0 105.8 0C70.7 0 35.3 0 17.7 0L0 0Z" fill="#8794ff"></path><path d="M0 100L17.7 103.7C35.3 107.3 70.7 114.7 105.8 109.8C141 105 176 88 211.2 80.7C246.3 73.3 281.7 75.7 316.8 81.5C352 87.3 387 96.7 422.2 96.3C457.3 96 492.7 86 527.8 88.7C563 91.3 598 106.7 633.2 113.7C668.3 120.7 703.7 119.3 738.8 113C774 106.7 809 95.3 844.2 88.3C879.3 81.3 914.7 78.7 932.3 77.3L950 76L950 0L932.3 0C914.7 0 879.3 0 844.2 0C809 0 774 0 738.8 0C703.7 0 668.3 0 633.2 0C598 0 563 0 527.8 0C492.7 0 457.3 0 422.2 0C387 0 352 0 316.8 0C281.7 0 246.3 0 211.2 0C176 0 141 0 105.8 0C70.7 0 35.3 0 17.7 0L0 0Z" fill="#969eff"></path><path d="M0 94L17.7 89C35.3 84 70.7 74 105.8 72.2C141 70.3 176 76.7 211.2 79.8C246.3 83 281.7 83 316.8 84.3C352 85.7 387 88.3 422.2 90.3C457.3 92.3 492.7 93.7 527.8 85.5C563 77.3 598 59.7 633.2 57.5C668.3 55.3 703.7 68.7 738.8 75.3C774 82 809 82 844.2 81.7C879.3 81.3 914.7 80.7 932.3 80.3L950 80L950 0L932.3 0C914.7 0 879.3 0 844.2 0C809 0 774 0 738.8 0C703.7 0 668.3 0 633.2 0C598 0 563 0 527.8 0C492.7 0 457.3 0 422.2 0C387 0 352 0 316.8 0C281.7 0 246.3 0 211.2 0C176 0 141 0 105.8 0C70.7 0 35.3 0 17.7 0L0 0Z" fill="#a4a9ff"></path><path d="M0 61L17.7 63.3C35.3 65.7 70.7 70.3 105.8 75.2C141 80 176 85 211.2 85C246.3 85 281.7 80 316.8 77.8C352 75.7 387 76.3 422.2 72C457.3 67.7 492.7 58.3 527.8 51.5C563 44.7 598 40.3 633.2 48.3C668.3 56.3 703.7 76.7 738.8 80.7C774 84.7 809 72.3 844.2 69C879.3 65.7 914.7 71.3 932.3 74.2L950 77L950 0L932.3 0C914.7 0 879.3 0 844.2 0C809 0 774 0 738.8 0C703.7 0 668.3 0 633.2 0C598 0 563 0 527.8 0C492.7 0 457.3 0 422.2 0C387 0 352 0 316.8 0C281.7 0 246.3 0 211.2 0C176 0 141 0 105.8 0C70.7 0 35.3 0 17.7 0L0 0Z" fill="#b2b4ff"></path><path d="M0 26L17.7 33.8C35.3 41.7 70.7 57.3 105.8 58.5C141 59.7 176 46.3 211.2 45.2C246.3 44 281.7 55 316.8 53C352 51 387 36 422.2 30.3C457.3 24.7 492.7 28.3 527.8 36C563 43.7 598 55.3 633.2 59.2C668.3 63 703.7 59 738.8 53.2C774 47.3 809 39.7 844.2 36.3C879.3 33 914.7 34 932.3 34.5L950 35L950 0L932.3 0C914.7 0 879.3 0 844.2 0C809 0 774 0 738.8 0C703.7 0 668.3 0 633.2 0C598 0 563 0 527.8 0C492.7 0 457.3 0 422.2 0C387 0 352 0 316.8 0C281.7 0 246.3 0 211.2 0C176 0 141 0 105.8 0C70.7 0 35.3 0 17.7 0L0 0Z" fill="#bfbfff"></path><path d="M0 21L17.7 25C35.3 29 70.7 37 105.8 38C141 39 176 33 211.2 27.8C246.3 22.7 281.7 18.3 316.8 18.8C352 19.3 387 24.7 422.2 24.2C457.3 23.7 492.7 17.3 527.8 20.8C563 24.3 598 37.7 633.2 38.7C668.3 39.7 703.7 28.3 738.8 25.2C774 22 809 27 844.2 32.2C879.3 37.3 914.7 42.7 932.3 45.3L950 48L950 0L932.3 0C914.7 0 879.3 0 844.2 0C809 0 774 0 738.8 0C703.7 0 668.3 0 633.2 0C598 0 563 0 527.8 0C492.7 0 457.3 0 422.2 0C387 0 352 0 316.8 0C281.7 0 246.3 0 211.2 0C176 0 141 0 105.8 0C70.7 0 35.3 0 17.7 0L0 0Z" fill="#cbcbff"></path><path d="M0 30L17.7 28.2C35.3 26.3 70.7 22.7 105.8 19.5C141 16.3 176 13.7 211.2 13.5C246.3 13.3 281.7 15.7 316.8 20C352 24.3 387 30.7 422.2 28.2C457.3 25.7 492.7 14.3 527.8 12C563 9.7 598 16.3 633.2 17.2C668.3 18 703.7 13 738.8 13C774 13 809 18 844.2 22C879.3 26 914.7 29 932.3 30.5L950 32L950 0L932.3 0C914.7 0 879.3 0 844.2 0C809 0 774 0 738.8 0C703.7 0 668.3 0 633.2 0C598 0 563 0 527.8 0C492.7 0 457.3 0 422.2 0C387 0 352 0 316.8 0C281.7 0 246.3 0 211.2 0C176 0 141 0 105.8 0C70.7 0 35.3 0 17.7 0L0 0Z" fill="#d7d6ff"></path></svg>