<svg id="visual" viewBox="0 0 900 60" width="900" height="60" xmlns="http://www.w3.org/2000/svg" xmlns:xlink="http://www.w3.org/1999/xlink" version="1.1"><path d="M0 3L9.3 3.2C18.7 3.3 37.3 3.7 56.2 4C75 4.3 94 4.7 112.8 5.3C131.7 6 150.3 7 169 7C187.7 7 206.3 6 225 5.7C243.7 5.3 262.3 5.7 281.2 6.2C300 6.7 319 7.3 337.8 7.2C356.7 7 375.3 6 394 5.2C412.7 4.3 431.3 3.7 450 4.3C468.7 5 487.3 7 506.2 6.8C525 6.7 544 4.3 562.8 3.7C581.7 3 600.3 4 619 5C637.7 6 656.3 7 675 7C693.7 7 712.3 6 731.2 5.3C750 4.7 769 4.3 787.8 4C806.7 3.7 825.3 3.3 844 3C862.7 2.7 881.3 2.3 890.7 2.2L900 2L900 0L890.7 0C881.3 0 862.7 0 844 0C825.3 0 806.7 0 787.8 0C769 0 750 0 731.2 0C712.3 0 693.7 0 675 0C656.3 0 637.7 0 619 0C600.3 0 581.7 0 562.8 0C544 0 525 0 506.2 0C487.3 0 468.7 0 450 0C431.3 0 412.7 0 394 0C375.3 0 356.7 0 337.8 0C319 0 300 0 281.2 0C262.3 0 243.7 0 225 0C206.3 0 187.7 0 169 0C150.3 0 131.7 0 112.8 0C94 0 75 0 56.2 0C37.3 0 18.7 0 9.3 0L0 0Z" fill="#cccccc"></path><path d="M0 8L9.3 7.7C18.7 7.3 37.3 6.7 56.2 6.3C75 6 94 6 112.8 7C131.7 8 150.3 10 169 10C187.7 10 206.3 8 225 7.7C243.7 7.3 262.3 8.7 281.2 9C300 9.3 319 8.7 337.8 8.5C356.7 8.3 375.3 8.7 394 8.7C412.7 8.7 431.3 8.3 450 8.7C468.7 9 487.3 10 506.2 9.5C525 9 544 7 562.8 6.5C581.7 6 600.3 7 619 7.7C637.7 8.3 656.3 8.7 675 8.3C693.7 8 712.3 7 731.2 6.7C750 6.3 769 6.7 787.8 6.5C806.7 6.3 825.3 5.7 844 5.8C862.7 6 881.3 7 890.7 7.5L900 8L900 0L890.7 0.2C881.3 0.3 862.7 0.7 844 1C825.3 1.3 806.7 1.7 787.8 2C769 2.3 750 2.7 731.2 3.3C712.3 4 693.7 5 675 5C656.3 5 637.7 4 619 3C600.3 2 581.7 1 562.8 1.7C544 2.3 525 4.7 506.2 4.8C487.3 5 468.7 3 450 2.3C431.3 1.7 412.7 2.3 394 3.2C375.3 4 356.7 5 337.8 5.2C319 5.3 300 4.7 281.2 4.2C262.3 3.7 243.7 3.3 225 3.7C206.3 4 187.7 5 169 5C150.3 5 131.7 4 112.8 3.3C94 2.7 75 2.3 56.2 2C37.3 1.7 18.7 1.3 9.3 1.2L0 1Z" fill="#b3b5b7"></path><path d="M0 9L9.3 9.3C18.7 9.7 37.3 10.3 56.2 10.7C75 11 94 11 112.8 11.3C131.7 11.7 150.3 12.3 169 11.8C187.7 11.3 206.3 9.7 225 9.8C243.7 10 262.3 12 281.2 12.2C300 12.3 319 10.7 337.8 10.8C356.7 11 375.3 13 394 13.7C412.7 14.3 431.3 13.7 450 13.3C468.7 13 487.3 13 506.2 12.5C525 12 544 11 562.8 10.3C581.7 9.7 600.3 9.3 619 9.5C637.7 9.7 656.3 10.3 675 10.2C693.7 10 712.3 9 731.2 8.5C750 8 769 8 787.8 8.5C806.7 9 825.3 10 844 10.7C862.7 11.3 881.3 11.7 890.7 11.8L900 12L900 6L890.7 5.5C881.3 5 862.7 4 844 3.8C825.3 3.7 806.7 4.3 787.8 4.5C769 4.7 750 4.3 731.2 4.7C712.3 5 693.7 6 675 6.3C656.3 6.7 637.7 6.3 619 5.7C600.3 5 581.7 4 562.8 4.5C544 5 525 7 506.2 7.5C487.3 8 468.7 7 450 6.7C431.3 6.3 412.7 6.7 394 6.7C375.3 6.7 356.7 6.3 337.8 6.5C319 6.7 300 7.3 281.2 7C262.3 6.7 243.7 5.3 225 5.7C206.3 6 187.7 8 169 8C150.3 8 131.7 6 112.8 5C94 4 75 4 56.2 4.3C37.3 4.7 18.7 5.3 9.3 5.7L0 6Z" fill="#9b9ea2"></path><path d="M0 14L9.3 14.2C18.7 14.3 37.3 14.7 56.2 15.3C75 16 94 17 112.8 17.3C131.7 17.7 150.3 17.3 169 16.8C187.7 16.3 206.3 15.7 225 15.8C243.7 16 262.3 17 281.2 17.3C300 17.7 319 17.3 337.8 18.2C356.7 19 375.3 21 394 20.5C412.7 20 431.3 17 450 16C468.7 15 487.3 16 506.2 15.8C525 15.7 544 14.3 562.8 13.3C581.7 12.3 600.3 11.7 619 11.7C637.7 11.7 656.3 12.3 675 12.8C693.7 13.3 712.3 13.7 731.2 14C750 14.3 769 14.7 787.8 15.2C806.7 15.7 825.3 16.3 844 16.8C862.7 17.3 881.3 17.7 890.7 17.8L900 18L900 10L890.7 9.8C881.3 9.7 862.7 9.3 844 8.7C825.3 8 806.7 7 787.8 6.5C769 6 750 6 731.2 6.5C712.3 7 693.7 8 675 8.2C656.3 8.3 637.7 7.7 619 7.5C600.3 7.3 581.7 7.7 562.8 8.3C544 9 525 10 506.2 10.5C487.3 11 468.7 11 450 11.3C431.3 11.7 412.7 12.3 394 11.7C375.3 11 356.7 9 337.8 8.8C319 8.7 300 10.3 281.2 10.2C262.3 10 243.7 8 225 7.8C206.3 7.7 187.7 9.3 169 9.8C150.3 10.3 131.7 9.7 112.8 9.3C94 9 75 9 56.2 8.7C37.3 8.3 18.7 7.7 9.3 7.3L0 7Z" fill="#83878e"></path><path d="M0 21L9.3 22.3C18.7 23.7 37.3 26.3 56.2 26.2C75 26 94 23 112.8 22.2C131.7 21.3 150.3 22.7 169 23.2C187.7 23.7 206.3 23.3 225 24.3C243.7 25.3 262.3 27.7 281.2 26.8C300 26 319 22 337.8 22C356.7 22 375.3 26 394 26.8C412.7 27.7 431.3 25.3 450 23.8C468.7 22.3 487.3 21.7 506.2 22.2C525 22.7 544 24.3 562.8 24.3C581.7 24.3 600.3 22.7 619 22.5C637.7 22.3 656.3 23.7 675 23.7C693.7 23.7 712.3 22.3 731.2 21.2C750 20 769 19 787.8 19.5C806.7 20 825.3 22 844 22.7C862.7 23.3 881.3 22.7 890.7 22.3L900 22L900 16L890.7 15.8C881.3 15.7 862.7 15.3 844 14.8C825.3 14.3 806.7 13.7 787.8 13.2C769 12.7 750 12.3 731.2 12C712.3 11.7 693.7 11.3 675 10.8C656.3 10.3 637.7 9.7 619 9.7C600.3 9.7 581.7 10.3 562.8 11.3C544 12.3 525 13.7 506.2 13.8C487.3 14 468.7 13 450 14C431.3 15 412.7 18 394 18.5C375.3 19 356.7 17 337.8 16.2C319 15.3 300 15.7 281.2 15.3C262.3 15 243.7 14 225 13.8C206.3 13.7 187.7 14.3 169 14.8C150.3 15.3 131.7 15.7 112.8 15.3C94 15 75 14 56.2 13.3C37.3 12.7 18.7 12.3 9.3 12.2L0 12Z" fill="#6c727b"></path><path d="M0 25L9.3 25.8C18.7 26.7 37.3 28.3 56.2 28.2C75 28 94 26 112.8 25.7C131.7 25.3 150.3 26.7 169 27.3C187.7 28 206.3 28 225 28.3C243.7 28.7 262.3 29.3 281.2 28.3C300 27.3 319 24.7 337.8 24.8C356.7 25 375.3 28 394 28.8C412.7 29.7 431.3 28.3 450 27.3C468.7 26.3 487.3 25.7 506.2 26.2C525 26.7 544 28.3 562.8 28.5C581.7 28.7 600.3 27.3 619 27.2C637.7 27 656.3 28 675 27.7C693.7 27.3 712.3 25.7 731.2 24.2C750 22.7 769 21.3 787.8 21.7C806.7 22 825.3 24 844 24.5C862.7 25 881.3 24 890.7 23.5L900 23L900 20L890.7 20.3C881.3 20.7 862.7 21.3 844 20.7C825.3 20 806.7 18 787.8 17.5C769 17 750 18 731.2 19.2C712.3 20.3 693.7 21.7 675 21.7C656.3 21.7 637.7 20.3 619 20.5C600.3 20.7 581.7 22.3 562.8 22.3C544 22.3 525 20.7 506.2 20.2C487.3 19.7 468.7 20.3 450 21.8C431.3 23.3 412.7 25.7 394 24.8C375.3 24 356.7 20 337.8 20C319 20 300 24 281.2 24.8C262.3 25.7 243.7 23.3 225 22.3C206.3 21.3 187.7 21.7 169 21.2C150.3 20.7 131.7 19.3 112.8 20.2C94 21 75 24 56.2 24.2C37.3 24.3 18.7 21.7 9.3 20.3L0 19Z" fill="#565d68"></path><path d="M0 31L9.3 32.8C18.7 34.7 37.3 38.3 56.2 38.7C75 39 94 36 112.8 36C131.7 36 150.3 39 169 39.3C187.7 39.7 206.3 37.3 225 38.2C243.7 39 262.3 43 281.2 43C300 43 319 39 337.8 38C356.7 37 375.3 39 394 39.5C412.7 40 431.3 39 450 40.2C468.7 41.3 487.3 44.7 506.2 45.2C525 45.7 544 43.3 562.8 43.2C581.7 43 600.3 45 619 44C637.7 43 656.3 39 675 37.7C693.7 36.3 712.3 37.7 731.2 37C750 36.3 769 33.7 787.8 34.3C806.7 35 825.3 39 844 38.5C862.7 38 881.3 33 890.7 30.5L900 28L900 21L890.7 21.5C881.3 22 862.7 23 844 22.5C825.3 22 806.7 20 787.8 19.7C769 19.3 750 20.7 731.2 22.2C712.3 23.7 693.7 25.3 675 25.7C656.3 26 637.7 25 619 25.2C600.3 25.3 581.7 26.7 562.8 26.5C544 26.3 525 24.7 506.2 24.2C487.3 23.7 468.7 24.3 450 25.3C431.3 26.3 412.7 27.7 394 26.8C375.3 26 356.7 23 337.8 22.8C319 22.7 300 25.3 281.2 26.3C262.3 27.3 243.7 26.7 225 26.3C206.3 26 187.7 26 169 25.3C150.3 24.7 131.7 23.3 112.8 23.7C94 24 75 26 56.2 26.2C37.3 26.3 18.7 24.7 9.3 23.8L0 23Z" fill="#404855"></path><path d="M0 53L9.3 53C18.7 53 37.3 53 56.2 52.8C75 52.7 94 52.3 112.8 52.5C131.7 52.7 150.3 53.3 169 53.3C187.7 53.3 206.3 52.7 225 53C243.7 53.3 262.3 54.7 281.2 54.3C300 54 319 52 337.8 51.8C356.7 51.7 375.3 53.3 394 53.2C412.7 53 431.3 51 450 51C468.7 51 487.3 53 506.2 53.3C525 53.7 544 52.3 562.8 52C581.7 51.7 600.3 52.3 619 53.3C637.7 54.3 656.3 55.7 675 54.7C693.7 53.7 712.3 50.3 731.2 49.8C750 49.3 769 51.7 787.8 51.8C806.7 52 825.3 50 844 50.2C862.7 50.3 881.3 52.7 890.7 53.8L900 55L900 26L890.7 28.5C881.3 31 862.7 36 844 36.5C825.3 37 806.7 33 787.8 32.3C769 31.7 750 34.3 731.2 35C712.3 35.7 693.7 34.3 675 35.7C656.3 37 637.7 41 619 42C600.3 43 581.7 41 562.8 41.2C544 41.3 525 43.7 506.2 43.2C487.3 42.7 468.7 39.3 450 38.2C431.3 37 412.7 38 394 37.5C375.3 37 356.7 35 337.8 36C319 37 300 41 281.2 41C262.3 41 243.7 37 225 36.2C206.3 35.3 187.7 37.7 169 37.3C150.3 37 131.7 34 112.8 34C94 34 75 37 56.2 36.7C37.3 36.3 18.7 32.7 9.3 30.8L0 29Z" fill="#2b3543"></path><path d="M0 60L9.3 59.3C18.7 58.7 37.3 57.3 56.2 56.8C75 56.3 94 56.7 112.8 56.7C131.7 56.7 150.3 56.3 169 56.7C187.7 57 206.3 58 225 58.5C243.7 59 262.3 59 281.2 58.8C300 58.7 319 58.3 337.8 58C356.7 57.7 375.3 57.3 394 57.5C412.7 57.7 431.3 58.3 450 58.7C468.7 59 487.3 59 506.2 59C525 59 544 59 562.8 59C581.7 59 600.3 59 619 59C637.7 59 656.3 59 675 58.7C693.7 58.3 712.3 57.7 731.2 57.8C750 58 769 59 787.8 59.2C806.7 59.3 825.3 58.7 844 58.2C862.7 57.7 881.3 57.3 890.7 57.2L900 57L900 53L890.7 51.8C881.3 50.7 862.7 48.3 844 48.2C825.3 48 806.7 50 787.8 49.8C769 49.7 750 47.3 731.2 47.8C712.3 48.3 693.7 51.7 675 52.7C656.3 53.7 637.7 52.3 619 51.3C600.3 50.3 581.7 49.7 562.8 50C544 50.3 525 51.7 506.2 51.3C487.3 51 468.7 49 450 49C431.3 49 412.7 51 394 51.2C375.3 51.3 356.7 49.7 337.8 49.8C319 50 300 52 281.2 52.3C262.3 52.7 243.7 51.3 225 51C206.3 50.7 187.7 51.3 169 51.3C150.3 51.3 131.7 50.7 112.8 50.5C94 50.3 75 50.7 56.2 50.8C37.3 51 18.7 51 9.3 51L0 51Z" fill="#172332"></path><path d="M0 61L9.3 61C18.7 61 37.3 61 56.2 61C75 61 94 61 112.8 61C131.7 61 150.3 61 169 61C187.7 61 206.3 61 225 61C243.7 61 262.3 61 281.2 61C300 61 319 61 337.8 61C356.7 61 375.3 61 394 61C412.7 61 431.3 61 450 61C468.7 61 487.3 61 506.2 61C525 61 544 61 562.8 61C581.7 61 600.3 61 619 61C637.7 61 656.3 61 675 61C693.7 61 712.3 61 731.2 61C750 61 769 61 787.8 61C806.7 61 825.3 61 844 61C862.7 61 881.3 61 890.7 61L900 61L900 55L890.7 55.2C881.3 55.3 862.7 55.7 844 56.2C825.3 56.7 806.7 57.3 787.8 57.2C769 57 750 56 731.2 55.8C712.3 55.7 693.7 56.3 675 56.7C656.3 57 637.7 57 619 57C600.3 57 581.7 57 562.8 57C544 57 525 57 506.2 57C487.3 57 468.7 57 450 56.7C431.3 56.3 412.7 55.7 394 55.5C375.3 55.3 356.7 55.7 337.8 56C319 56.3 300 56.7 281.2 56.8C262.3 57 243.7 57 225 56.5C206.3 56 187.7 55 169 54.7C150.3 54.3 131.7 54.7 112.8 54.7C94 54.7 75 54.3 56.2 54.8C37.3 55.3 18.7 56.7 9.3 57.3L0 58Z" fill="#001122"></path></svg>