<svg id="visual" viewBox="0 0 950 300" width="950" height="300" xmlns="http://www.w3.org/2000/svg" xmlns:xlink="http://www.w3.org/1999/xlink" version="1.1"><rect x="0" y="0" width="950" height="300" fill="#001122"></rect><path d="M0 137L41 137L41 115L83 115L83 115L124 115L124 160L165 160L165 127L207 127L207 174L248 174L248 143L289 143L289 111L330 111L330 113L372 113L372 145L413 145L413 100L454 100L454 141L496 141L496 166L537 166L537 107L578 107L578 134L620 134L620 103L661 103L661 99L702 99L702 170L743 170L743 117L785 117L785 166L826 166L826 109L867 109L867 98L909 98L909 133L950 133L950 157L950 0L950 0L909 0L909 0L867 0L867 0L826 0L826 0L785 0L785 0L743 0L743 0L702 0L702 0L661 0L661 0L620 0L620 0L578 0L578 0L537 0L537 0L496 0L496 0L454 0L454 0L413 0L413 0L372 0L372 0L330 0L330 0L289 0L289 0L248 0L248 0L207 0L207 0L165 0L165 0L124 0L124 0L83 0L83 0L41 0L41 0L0 0Z" fill="#98a4f3"></path><path d="M0 129L41 129L41 96L83 96L83 74L124 74L124 80L165 80L165 75L207 75L207 90L248 90L248 120L289 120L289 129L330 129L330 93L372 93L372 73L413 73L413 72L454 72L454 103L496 103L496 103L537 103L537 149L578 149L578 96L620 96L620 98L661 98L661 73L702 73L702 153L743 153L743 110L785 110L785 152L826 152L826 124L867 124L867 80L909 80L909 136L950 136L950 152L950 0L950 0L909 0L909 0L867 0L867 0L826 0L826 0L785 0L785 0L743 0L743 0L702 0L702 0L661 0L661 0L620 0L620 0L578 0L578 0L537 0L537 0L496 0L496 0L454 0L454 0L413 0L413 0L372 0L372 0L330 0L330 0L289 0L289 0L248 0L248 0L207 0L207 0L165 0L165 0L124 0L124 0L83 0L83 0L41 0L41 0L0 0Z" fill="#a2acf4"></path><path d="M0 123L41 123L41 100L83 100L83 97L124 97L124 61L165 61L165 105L207 105L207 69L248 69L248 92L289 92L289 115L330 115L330 57L372 57L372 76L413 76L413 94L454 94L454 103L496 103L496 90L537 90L537 86L578 86L578 94L620 94L620 106L661 106L661 60L702 60L702 108L743 108L743 59L785 59L785 109L826 109L826 71L867 71L867 115L909 115L909 76L950 76L950 79L950 0L950 0L909 0L909 0L867 0L867 0L826 0L826 0L785 0L785 0L743 0L743 0L702 0L702 0L661 0L661 0L620 0L620 0L578 0L578 0L537 0L537 0L496 0L496 0L454 0L454 0L413 0L413 0L372 0L372 0L330 0L330 0L289 0L289 0L248 0L248 0L207 0L207 0L165 0L165 0L124 0L124 0L83 0L83 0L41 0L41 0L0 0Z" fill="#abb3f5"></path><path d="M0 78L41 78L41 64L83 64L83 89L124 89L124 98L165 98L165 91L207 91L207 84L248 84L248 88L289 88L289 74L330 74L330 66L372 66L372 47L413 47L413 93L454 93L454 67L496 67L496 57L537 57L537 73L578 73L578 94L620 94L620 85L661 85L661 95L702 95L702 93L743 93L743 68L785 68L785 102L826 102L826 63L867 63L867 39L909 39L909 39L950 39L950 84L950 0L950 0L909 0L909 0L867 0L867 0L826 0L826 0L785 0L785 0L743 0L743 0L702 0L702 0L661 0L661 0L620 0L620 0L578 0L578 0L537 0L537 0L496 0L496 0L454 0L454 0L413 0L413 0L372 0L372 0L330 0L330 0L289 0L289 0L248 0L248 0L207 0L207 0L165 0L165 0L124 0L124 0L83 0L83 0L41 0L41 0L0 0Z" fill="#b5bbf7"></path><path d="M0 56L41 56L41 22L83 22L83 71L124 71L124 67L165 67L165 20L207 20L207 33L248 33L248 42L289 42L289 23L330 23L330 35L372 35L372 53L413 53L413 64L454 64L454 44L496 44L496 58L537 58L537 38L578 38L578 40L620 40L620 68L661 68L661 37L702 37L702 21L743 21L743 53L785 53L785 21L826 21L826 57L867 57L867 59L909 59L909 56L950 56L950 42L950 0L950 0L909 0L909 0L867 0L867 0L826 0L826 0L785 0L785 0L743 0L743 0L702 0L702 0L661 0L661 0L620 0L620 0L578 0L578 0L537 0L537 0L496 0L496 0L454 0L454 0L413 0L413 0L372 0L372 0L330 0L330 0L289 0L289 0L248 0L248 0L207 0L207 0L165 0L165 0L124 0L124 0L83 0L83 0L41 0L41 0L0 0Z" fill="#bec2f8"></path><path d="M0 44L41 44L41 3L83 3L83 49L124 49L124 35L165 35L165 0L207 0L207 36L248 36L248 10L289 10L289 40L330 40L330 47L372 47L372 30L413 30L413 2L454 2L454 25L496 25L496 48L537 48L537 35L578 35L578 3L620 3L620 10L661 10L661 20L702 20L702 8L743 8L743 45L785 45L785 24L826 24L826 12L867 12L867 10L909 10L909 40L950 40L950 42L950 0L950 0L909 0L909 0L867 0L867 0L826 0L826 0L785 0L785 0L743 0L743 0L702 0L702 0L661 0L661 0L620 0L620 0L578 0L578 0L537 0L537 0L496 0L496 0L454 0L454 0L413 0L413 0L372 0L372 0L330 0L330 0L289 0L289 0L248 0L248 0L207 0L207 0L165 0L165 0L124 0L124 0L83 0L83 0L41 0L41 0L0 0Z" fill="#c7caf9"></path></svg>