<svg id="visual" viewBox="0 0 950 300" width="950" height="300" xmlns="http://www.w3.org/2000/svg" xmlns:xlink="http://www.w3.org/1999/xlink" version="1.1"><rect x="0" y="0" width="950" height="300" fill="#ffffff"></rect><path d="M0 244L9.3 244.2C18.7 244.3 37.3 244.7 56 246C74.7 247.3 93.3 249.7 112 244.3C130.7 239 149.3 226 168 211.5C186.7 197 205.3 181 223.8 174.7C242.3 168.3 260.7 171.7 279.2 181.7C297.7 191.7 316.3 208.3 335 223.2C353.7 238 372.3 251 391 233.5C409.7 216 428.3 168 447 153C465.7 138 484.3 156 503 167.8C521.7 179.7 540.3 185.3 559 194.5C577.7 203.7 596.3 216.3 615 220.8C633.7 225.3 652.3 221.7 670.8 211.2C689.3 200.7 707.7 183.3 726.2 167.7C744.7 152 763.3 138 782 128.2C800.7 118.3 819.3 112.7 838 115.3C856.7 118 875.3 129 894 129.3C912.7 129.7 931.3 119.3 940.7 114.2L950 109L950 0L940.7 0C931.3 0 912.7 0 894 0C875.3 0 856.7 0 838 0C819.3 0 800.7 0 782 0C763.3 0 744.7 0 726.2 0C707.7 0 689.3 0 670.8 0C652.3 0 633.7 0 615 0C596.3 0 577.7 0 559 0C540.3 0 521.7 0 503 0C484.3 0 465.7 0 447 0C428.3 0 409.7 0 391 0C372.3 0 353.7 0 335 0C316.3 0 297.7 0 279.2 0C260.7 0 242.3 0 223.8 0C205.3 0 186.7 0 168 0C149.3 0 130.7 0 112 0C93.3 0 74.7 0 56 0C37.3 0 18.7 0 9.3 0L0 0Z" fill="#404855"></path><path d="M0 204L9.3 204.2C18.7 204.3 37.3 204.7 56 200.3C74.7 196 93.3 187 112 188.2C130.7 189.3 149.3 200.7 168 195.5C186.7 190.3 205.3 168.7 223.8 159.3C242.3 150 260.7 153 279.2 161.7C297.7 170.3 316.3 184.7 335 181C353.7 177.3 372.3 155.7 391 148.2C409.7 140.7 428.3 147.3 447 141.8C465.7 136.3 484.3 118.7 503 121.2C521.7 123.7 540.3 146.3 559 147C577.7 147.7 596.3 126.3 615 130.2C633.7 134 652.3 163 670.8 167.5C689.3 172 707.7 152 726.2 156.3C744.7 160.7 763.3 189.3 782 190C800.7 190.7 819.3 163.3 838 160.2C856.7 157 875.3 178 894 177.5C912.7 177 931.3 155 940.7 144L950 133L950 0L940.7 0C931.3 0 912.7 0 894 0C875.3 0 856.7 0 838 0C819.3 0 800.7 0 782 0C763.3 0 744.7 0 726.2 0C707.7 0 689.3 0 670.8 0C652.3 0 633.7 0 615 0C596.3 0 577.7 0 559 0C540.3 0 521.7 0 503 0C484.3 0 465.7 0 447 0C428.3 0 409.7 0 391 0C372.3 0 353.7 0 335 0C316.3 0 297.7 0 279.2 0C260.7 0 242.3 0 223.8 0C205.3 0 186.7 0 168 0C149.3 0 130.7 0 112 0C93.3 0 74.7 0 56 0C37.3 0 18.7 0 9.3 0L0 0Z" fill="#505869"></path><path d="M0 105L9.3 107.7C18.7 110.3 37.3 115.7 56 131.5C74.7 147.3 93.3 173.7 112 182C130.7 190.3 149.3 180.7 168 166.8C186.7 153 205.3 135 223.8 123.8C242.3 112.7 260.7 108.3 279.2 106.2C297.7 104 316.3 104 335 108.2C353.7 112.3 372.3 120.7 391 132.7C409.7 144.7 428.3 160.3 447 174C465.7 187.7 484.3 199.3 503 202.7C521.7 206 540.3 201 559 188C577.7 175 596.3 154 615 135.5C633.7 117 652.3 101 670.8 93.2C689.3 85.3 707.7 85.7 726.2 91.8C744.7 98 763.3 110 782 117C800.7 124 819.3 126 838 127.5C856.7 129 875.3 130 894 125.5C912.7 121 931.3 111 940.7 106L950 101L950 0L940.7 0C931.3 0 912.7 0 894 0C875.3 0 856.7 0 838 0C819.3 0 800.7 0 782 0C763.3 0 744.7 0 726.2 0C707.7 0 689.3 0 670.8 0C652.3 0 633.7 0 615 0C596.3 0 577.7 0 559 0C540.3 0 521.7 0 503 0C484.3 0 465.7 0 447 0C428.3 0 409.7 0 391 0C372.3 0 353.7 0 335 0C316.3 0 297.7 0 279.2 0C260.7 0 242.3 0 223.8 0C205.3 0 186.7 0 168 0C149.3 0 130.7 0 112 0C93.3 0 74.7 0 56 0C37.3 0 18.7 0 9.3 0L0 0Z" fill="#61697d"></path><path d="M0 96L9.3 110.2C18.7 124.3 37.3 152.7 56 154.8C74.7 157 93.3 133 112 114C130.7 95 149.3 81 168 89.8C186.7 98.7 205.3 130.3 223.8 142.2C242.3 154 260.7 146 279.2 149.7C297.7 153.3 316.3 168.7 335 167.8C353.7 167 372.3 150 391 136C409.7 122 428.3 111 447 105.7C465.7 100.3 484.3 100.7 503 105.8C521.7 111 540.3 121 559 122.8C577.7 124.7 596.3 118.3 615 117.8C633.7 117.3 652.3 122.7 670.8 126.2C689.3 129.7 707.7 131.3 726.2 131.8C744.7 132.3 763.3 131.7 782 132C800.7 132.3 819.3 133.7 838 142.7C856.7 151.7 875.3 168.3 894 173C912.7 177.7 931.3 170.3 940.7 166.7L950 163L950 0L940.7 0C931.3 0 912.7 0 894 0C875.3 0 856.7 0 838 0C819.3 0 800.7 0 782 0C763.3 0 744.7 0 726.2 0C707.7 0 689.3 0 670.8 0C652.3 0 633.7 0 615 0C596.3 0 577.7 0 559 0C540.3 0 521.7 0 503 0C484.3 0 465.7 0 447 0C428.3 0 409.7 0 391 0C372.3 0 353.7 0 335 0C316.3 0 297.7 0 279.2 0C260.7 0 242.3 0 223.8 0C205.3 0 186.7 0 168 0C149.3 0 130.7 0 112 0C93.3 0 74.7 0 56 0C37.3 0 18.7 0 9.3 0L0 0Z" fill="#727a92"></path><path d="M0 118L9.3 114.3C18.7 110.7 37.3 103.3 56 107.3C74.7 111.3 93.3 126.7 112 120.5C130.7 114.3 149.3 86.7 168 82C186.7 77.3 205.3 95.7 223.8 102.5C242.3 109.3 260.7 104.7 279.2 106.5C297.7 108.3 316.3 116.7 335 113.7C353.7 110.7 372.3 96.3 391 92.5C409.7 88.7 428.3 95.3 447 103.8C465.7 112.3 484.3 122.7 503 116.5C521.7 110.3 540.3 87.7 559 77.5C577.7 67.3 596.3 69.7 615 69.7C633.7 69.7 652.3 67.3 670.8 77C689.3 86.7 707.7 108.3 726.2 114C744.7 119.7 763.3 109.3 782 104.2C800.7 99 819.3 99 838 94.7C856.7 90.3 875.3 81.7 894 79.8C912.7 78 931.3 83 940.7 85.5L950 88L950 0L940.7 0C931.3 0 912.7 0 894 0C875.3 0 856.7 0 838 0C819.3 0 800.7 0 782 0C763.3 0 744.7 0 726.2 0C707.7 0 689.3 0 670.8 0C652.3 0 633.7 0 615 0C596.3 0 577.7 0 559 0C540.3 0 521.7 0 503 0C484.3 0 465.7 0 447 0C428.3 0 409.7 0 391 0C372.3 0 353.7 0 335 0C316.3 0 297.7 0 279.2 0C260.7 0 242.3 0 223.8 0C205.3 0 186.7 0 168 0C149.3 0 130.7 0 112 0C93.3 0 74.7 0 56 0C37.3 0 18.7 0 9.3 0L0 0Z" fill="#858ca7"></path><path d="M0 72L9.3 73C18.7 74 37.3 76 56 84.2C74.7 92.3 93.3 106.7 112 111.8C130.7 117 149.3 113 168 102C186.7 91 205.3 73 223.8 65C242.3 57 260.7 59 279.2 65C297.7 71 316.3 81 335 79.7C353.7 78.3 372.3 65.7 391 58C409.7 50.3 428.3 47.7 447 55.7C465.7 63.7 484.3 82.3 503 89.7C521.7 97 540.3 93 559 91C577.7 89 596.3 89 615 89.8C633.7 90.7 652.3 92.3 670.8 88.3C689.3 84.3 707.7 74.7 726.2 80.5C744.7 86.3 763.3 107.7 782 112.2C800.7 116.7 819.3 104.3 838 90.5C856.7 76.7 875.3 61.3 894 60.7C912.7 60 931.3 74 940.7 81L950 88L950 0L940.7 0C931.3 0 912.7 0 894 0C875.3 0 856.7 0 838 0C819.3 0 800.7 0 782 0C763.3 0 744.7 0 726.2 0C707.7 0 689.3 0 670.8 0C652.3 0 633.7 0 615 0C596.3 0 577.7 0 559 0C540.3 0 521.7 0 503 0C484.3 0 465.7 0 447 0C428.3 0 409.7 0 391 0C372.3 0 353.7 0 335 0C316.3 0 297.7 0 279.2 0C260.7 0 242.3 0 223.8 0C205.3 0 186.7 0 168 0C149.3 0 130.7 0 112 0C93.3 0 74.7 0 56 0C37.3 0 18.7 0 9.3 0L0 0Z" fill="#989ebd"></path><path d="M0 60L9.3 56.7C18.7 53.3 37.3 46.7 56 44.7C74.7 42.7 93.3 45.3 112 55C130.7 64.7 149.3 81.3 168 79.3C186.7 77.3 205.3 56.7 223.8 55.3C242.3 54 260.7 72 279.2 73.2C297.7 74.3 316.3 58.7 335 59.8C353.7 61 372.3 79 391 76.8C409.7 74.7 428.3 52.3 447 42.2C465.7 32 484.3 34 503 34.5C521.7 35 540.3 34 559 32.7C577.7 31.3 596.3 29.7 615 34.3C633.7 39 652.3 50 670.8 62.8C689.3 75.7 707.7 90.3 726.2 87.8C744.7 85.3 763.3 65.7 782 59C800.7 52.3 819.3 58.7 838 60.8C856.7 63 875.3 61 894 64.2C912.7 67.3 931.3 75.7 940.7 79.8L950 84L950 0L940.7 0C931.3 0 912.7 0 894 0C875.3 0 856.7 0 838 0C819.3 0 800.7 0 782 0C763.3 0 744.7 0 726.2 0C707.7 0 689.3 0 670.8 0C652.3 0 633.7 0 615 0C596.3 0 577.7 0 559 0C540.3 0 521.7 0 503 0C484.3 0 465.7 0 447 0C428.3 0 409.7 0 391 0C372.3 0 353.7 0 335 0C316.3 0 297.7 0 279.2 0C260.7 0 242.3 0 223.8 0C205.3 0 186.7 0 168 0C149.3 0 130.7 0 112 0C93.3 0 74.7 0 56 0C37.3 0 18.7 0 9.3 0L0 0Z" fill="#acb0d2"></path><path d="M0 66L9.3 60.5C18.7 55 37.3 44 56 36C74.7 28 93.3 23 112 22.5C130.7 22 149.3 26 168 35.7C186.7 45.3 205.3 60.7 223.8 69C242.3 77.3 260.7 78.7 279.2 72.5C297.7 66.3 316.3 52.7 335 51.5C353.7 50.3 372.3 61.7 391 62.5C409.7 63.3 428.3 53.7 447 51C465.7 48.3 484.3 52.7 503 57.7C521.7 62.7 540.3 68.3 559 71.2C577.7 74 596.3 74 615 74.2C633.7 74.3 652.3 74.7 670.8 74C689.3 73.3 707.7 71.7 726.2 67.5C744.7 63.3 763.3 56.7 782 50.5C800.7 44.3 819.3 38.7 838 43.2C856.7 47.7 875.3 62.3 894 66.5C912.7 70.7 931.3 64.3 940.7 61.2L950 58L950 0L940.7 0C931.3 0 912.7 0 894 0C875.3 0 856.7 0 838 0C819.3 0 800.7 0 782 0C763.3 0 744.7 0 726.2 0C707.7 0 689.3 0 670.8 0C652.3 0 633.7 0 615 0C596.3 0 577.7 0 559 0C540.3 0 521.7 0 503 0C484.3 0 465.7 0 447 0C428.3 0 409.7 0 391 0C372.3 0 353.7 0 335 0C316.3 0 297.7 0 279.2 0C260.7 0 242.3 0 223.8 0C205.3 0 186.7 0 168 0C149.3 0 130.7 0 112 0C93.3 0 74.7 0 56 0C37.3 0 18.7 0 9.3 0L0 0Z" fill="#c1c3e9"></path><path d="M0 25L9.3 22.5C18.7 20 37.3 15 56 12.8C74.7 10.7 93.3 11.3 112 18.5C130.7 25.7 149.3 39.3 168 45.8C186.7 52.3 205.3 51.7 223.8 49.3C242.3 47 260.7 43 279.2 41.2C297.7 39.3 316.3 39.7 335 34.5C353.7 29.3 372.3 18.7 391 16.3C409.7 14 428.3 20 447 20C465.7 20 484.3 14 503 10.7C521.7 7.3 540.3 6.7 559 11.8C577.7 17 596.3 28 615 31.5C633.7 35 652.3 31 670.8 32.2C689.3 33.3 707.7 39.7 726.2 37.3C744.7 35 763.3 24 782 18C800.7 12 819.3 11 838 9.2C856.7 7.3 875.3 4.7 894 11.7C912.7 18.7 931.3 35.3 940.7 43.7L950 52L950 0L940.7 0C931.3 0 912.7 0 894 0C875.3 0 856.7 0 838 0C819.3 0 800.7 0 782 0C763.3 0 744.7 0 726.2 0C707.7 0 689.3 0 670.8 0C652.3 0 633.7 0 615 0C596.3 0 577.7 0 559 0C540.3 0 521.7 0 503 0C484.3 0 465.7 0 447 0C428.3 0 409.7 0 391 0C372.3 0 353.7 0 335 0C316.3 0 297.7 0 279.2 0C260.7 0 242.3 0 223.8 0C205.3 0 186.7 0 168 0C149.3 0 130.7 0 112 0C93.3 0 74.7 0 56 0C37.3 0 18.7 0 9.3 0L0 0Z" fill="#d7d6ff"></path></svg>