<svg id="visual" viewBox="0 0 950 50" width="950" height="50" xmlns="http://www.w3.org/2000/svg" xmlns:xlink="http://www.w3.org/1999/xlink" version="1.1"><path d="M0 9L86 9L173 8L259 6L345 5L432 7L518 5L605 9L691 6L777 8L864 9L950 7L950 0L864 0L777 0L691 0L605 0L518 0L432 0L345 0L259 0L173 0L86 0L0 0Z" fill="#98a4f3"></path><path d="M0 14L86 15L173 18L259 17L345 14L432 12L518 15L605 19L691 15L777 17L864 15L950 15L950 5L864 7L777 6L691 4L605 7L518 3L432 5L345 3L259 4L173 6L86 7L0 7Z" fill="#a9b0f6"></path><path d="M0 29L86 33L173 25L259 37L345 34L432 19L518 31L605 32L691 20L777 29L864 35L950 29L950 13L864 13L777 15L691 13L605 17L518 13L432 10L345 12L259 15L173 16L86 13L0 12Z" fill="#b9bcf9"></path><path d="M0 35L86 37L173 34L259 42L345 39L432 32L518 44L605 41L691 33L777 34L864 41L950 39L950 27L864 33L777 27L691 18L605 30L518 29L432 17L345 32L259 35L173 23L86 31L0 27Z" fill="#c8c9fc"></path><path d="M0 51L86 51L173 51L259 51L345 51L432 51L518 51L605 51L691 51L777 51L864 51L950 51L950 37L864 39L777 32L691 31L605 39L518 42L432 30L345 37L259 40L173 32L86 35L0 33Z" fill="#d7d6ff"></path></svg>