<svg id="visual" viewBox="0 0 950 300" width="950" height="300" xmlns="http://www.w3.org/2000/svg" xmlns:xlink="http://www.w3.org/1999/xlink" version="1.1"><rect x="0" y="0" width="950" height="300" fill="#D7D6FF"></rect><path d="M0 118L9.3 111.2C18.7 104.3 37.3 90.7 56 90.8C74.7 91 93.3 105 112 102.3C130.7 99.7 149.3 80.3 168 73C186.7 65.7 205.3 70.3 223.8 71.7C242.3 73 260.7 71 279.2 77C297.7 83 316.3 97 335 95.2C353.7 93.3 372.3 75.7 391 68.2C409.7 60.7 428.3 63.3 447 68.8C465.7 74.3 484.3 82.7 503 85.5C521.7 88.3 540.3 85.7 559 87.7C577.7 89.7 596.3 96.3 615 99.5C633.7 102.7 652.3 102.3 670.8 100.7C689.3 99 707.7 96 726.2 93.7C744.7 91.3 763.3 89.7 782 88C800.7 86.3 819.3 84.7 838 88C856.7 91.3 875.3 99.7 894 95.7C912.7 91.7 931.3 75.3 940.7 67.2L950 59L950 0L940.7 0C931.3 0 912.7 0 894 0C875.3 0 856.7 0 838 0C819.3 0 800.7 0 782 0C763.3 0 744.7 0 726.2 0C707.7 0 689.3 0 670.8 0C652.3 0 633.7 0 615 0C596.3 0 577.7 0 559 0C540.3 0 521.7 0 503 0C484.3 0 465.7 0 447 0C428.3 0 409.7 0 391 0C372.3 0 353.7 0 335 0C316.3 0 297.7 0 279.2 0C260.7 0 242.3 0 223.8 0C205.3 0 186.7 0 168 0C149.3 0 130.7 0 112 0C93.3 0 74.7 0 56 0C37.3 0 18.7 0 9.3 0L0 0Z" fill="#7789ff"></path><path d="M0 81L9.3 79.7C18.7 78.3 37.3 75.7 56 70.3C74.7 65 93.3 57 112 56.5C130.7 56 149.3 63 168 64.2C186.7 65.3 205.3 60.7 223.8 60.3C242.3 60 260.7 64 279.2 62.2C297.7 60.3 316.3 52.7 335 54.3C353.7 56 372.3 67 391 73.5C409.7 80 428.3 82 447 84C465.7 86 484.3 88 503 84.3C521.7 80.7 540.3 71.3 559 67.5C577.7 63.7 596.3 65.3 615 69C633.7 72.7 652.3 78.3 670.8 83C689.3 87.7 707.7 91.3 726.2 84.8C744.7 78.3 763.3 61.7 782 58.5C800.7 55.3 819.3 65.7 838 74C856.7 82.3 875.3 88.7 894 83.3C912.7 78 931.3 61 940.7 52.5L950 44L950 0L940.7 0C931.3 0 912.7 0 894 0C875.3 0 856.7 0 838 0C819.3 0 800.7 0 782 0C763.3 0 744.7 0 726.2 0C707.7 0 689.3 0 670.8 0C652.3 0 633.7 0 615 0C596.3 0 577.7 0 559 0C540.3 0 521.7 0 503 0C484.3 0 465.7 0 447 0C428.3 0 409.7 0 391 0C372.3 0 353.7 0 335 0C316.3 0 297.7 0 279.2 0C260.7 0 242.3 0 223.8 0C205.3 0 186.7 0 168 0C149.3 0 130.7 0 112 0C93.3 0 74.7 0 56 0C37.3 0 18.7 0 9.3 0L0 0Z" fill="#a0a5ff"></path><path d="M0 27L9.3 33.7C18.7 40.3 37.3 53.7 56 57.8C74.7 62 93.3 57 112 57.8C130.7 58.7 149.3 65.3 168 61.7C186.7 58 205.3 44 223.8 38.8C242.3 33.7 260.7 37.3 279.2 45.2C297.7 53 316.3 65 335 64.5C353.7 64 372.3 51 391 49.2C409.7 47.3 428.3 56.7 447 62C465.7 67.3 484.3 68.7 503 62.3C521.7 56 540.3 42 559 42.2C577.7 42.3 596.3 56.7 615 60.8C633.7 65 652.3 59 670.8 54.3C689.3 49.7 707.7 46.3 726.2 48.2C744.7 50 763.3 57 782 55.7C800.7 54.3 819.3 44.7 838 39C856.7 33.3 875.3 31.7 894 32.5C912.7 33.3 931.3 36.7 940.7 38.3L950 40L950 0L940.7 0C931.3 0 912.7 0 894 0C875.3 0 856.7 0 838 0C819.3 0 800.7 0 782 0C763.3 0 744.7 0 726.2 0C707.7 0 689.3 0 670.8 0C652.3 0 633.7 0 615 0C596.3 0 577.7 0 559 0C540.3 0 521.7 0 503 0C484.3 0 465.7 0 447 0C428.3 0 409.7 0 391 0C372.3 0 353.7 0 335 0C316.3 0 297.7 0 279.2 0C260.7 0 242.3 0 223.8 0C205.3 0 186.7 0 168 0C149.3 0 130.7 0 112 0C93.3 0 74.7 0 56 0C37.3 0 18.7 0 9.3 0L0 0Z" fill="#c2c2ff"></path><path d="M0 44L9.3 41.8C18.7 39.7 37.3 35.3 56 33.8C74.7 32.3 93.3 33.7 112 34.8C130.7 36 149.3 37 168 34C186.7 31 205.3 24 223.8 23.7C242.3 23.3 260.7 29.7 279.2 35.5C297.7 41.3 316.3 46.7 335 48.2C353.7 49.7 372.3 47.3 391 43.8C409.7 40.3 428.3 35.7 447 35.8C465.7 36 484.3 41 503 42.8C521.7 44.7 540.3 43.3 559 43.8C577.7 44.3 596.3 46.7 615 45.2C633.7 43.7 652.3 38.3 670.8 35C689.3 31.7 707.7 30.3 726.2 27.3C744.7 24.3 763.3 19.7 782 23.2C800.7 26.7 819.3 38.3 838 44.2C856.7 50 875.3 50 894 50C912.7 50 931.3 50 940.7 50L950 50L950 0L940.7 0C931.3 0 912.7 0 894 0C875.3 0 856.7 0 838 0C819.3 0 800.7 0 782 0C763.3 0 744.7 0 726.2 0C707.7 0 689.3 0 670.8 0C652.3 0 633.7 0 615 0C596.3 0 577.7 0 559 0C540.3 0 521.7 0 503 0C484.3 0 465.7 0 447 0C428.3 0 409.7 0 391 0C372.3 0 353.7 0 335 0C316.3 0 297.7 0 279.2 0C260.7 0 242.3 0 223.8 0C205.3 0 186.7 0 168 0C149.3 0 130.7 0 112 0C93.3 0 74.7 0 56 0C37.3 0 18.7 0 9.3 0L0 0Z" fill="#e1e0ff"></path><path d="M0 5L9.3 9C18.7 13 37.3 21 56 24.8C74.7 28.7 93.3 28.3 112 27.8C130.7 27.3 149.3 26.7 168 27.7C186.7 28.7 205.3 31.3 223.8 32.2C242.3 33 260.7 32 279.2 28.2C297.7 24.3 316.3 17.7 335 12.8C353.7 8 372.3 5 391 6.5C409.7 8 428.3 14 447 18.7C465.7 23.3 484.3 26.7 503 29C521.7 31.3 540.3 32.7 559 32.2C577.7 31.7 596.3 29.3 615 29.2C633.7 29 652.3 31 670.8 30.8C689.3 30.7 707.7 28.3 726.2 23.3C744.7 18.3 763.3 10.7 782 10C800.7 9.3 819.3 15.7 838 20C856.7 24.3 875.3 26.7 894 24C912.7 21.3 931.3 13.7 940.7 9.8L950 6L950 0L940.7 0C931.3 0 912.7 0 894 0C875.3 0 856.7 0 838 0C819.3 0 800.7 0 782 0C763.3 0 744.7 0 726.2 0C707.7 0 689.3 0 670.8 0C652.3 0 633.7 0 615 0C596.3 0 577.7 0 559 0C540.3 0 521.7 0 503 0C484.3 0 465.7 0 447 0C428.3 0 409.7 0 391 0C372.3 0 353.7 0 335 0C316.3 0 297.7 0 279.2 0C260.7 0 242.3 0 223.8 0C205.3 0 186.7 0 168 0C149.3 0 130.7 0 112 0C93.3 0 74.7 0 56 0C37.3 0 18.7 0 9.3 0L0 0Z" fill="#ffffff"></path></svg>