<svg id="visual" viewBox="0 0 960 300" width="960" height="300" xmlns="http://www.w3.org/2000/svg" xmlns:xlink="http://www.w3.org/1999/xlink" version="1.1"><rect x="0" y="0" width="960" height="300" fill="#000d1a"></rect><path d="M0 175L22.8 169.8C45.7 164.7 91.3 154.3 137 167.3C182.7 180.3 228.3 216.7 274 219.5C319.7 222.3 365.3 191.7 411.2 174C457 156.3 503 151.7 548.8 163.8C594.7 176 640.3 205 686 222.5C731.7 240 777.3 246 823 229.3C868.7 212.7 914.3 173.3 937.2 153.7L960 134L960 301L937.2 301C914.3 301 868.7 301 823 301C777.3 301 731.7 301 686 301C640.3 301 594.7 301 548.8 301C503 301 457 301 411.2 301C365.3 301 319.7 301 274 301C228.3 301 182.7 301 137 301C91.3 301 45.7 301 22.8 301L0 301Z" fill="#0066FF" stroke-linecap="round" stroke-linejoin="miter"></path></svg>