<svg id="visual" viewBox="0 0 900 600" width="900" height="600" xmlns="http://www.w3.org/2000/svg" xmlns:xlink="http://www.w3.org/1999/xlink" version="1.1"><rect x="0" y="0" width="900" height="600" fill="#FFFFFF"></rect><path d="M0 518L21.5 508.5C43 499 86 480 128.8 461.2C171.7 442.3 214.3 423.7 257.2 419.5C300 415.3 343 425.7 385.8 439.2C428.7 452.7 471.3 469.3 514.2 469.2C557 469 600 452 642.8 448.3C685.7 444.7 728.3 454.3 771.2 451.2C814 448 857 432 878.5 424L900 416L900 601L878.5 601C857 601 814 601 771.2 601C728.3 601 685.7 601 642.8 601C600 601 557 601 514.2 601C471.3 601 428.7 601 385.8 601C343 601 300 601 257.2 601C214.3 601 171.7 601 128.8 601C86 601 43 601 21.5 601L0 601Z" fill="#6600FF" stroke-linecap="round" stroke-linejoin="miter"></path></svg>